<svg xmlns="http://www.w3.org/2000/svg" width="720" height="140" viewBox="0 0 720 140" font-family="-apple-system,BlinkMacSystemFont,Segoe UI,Helvetica,Arial,sans-serif"><style>svg{--cf-bg:#0d1117;--cf-bg-alt:#161b22;--cf-border:#21262d;--cf-text:#e6edf3;--cf-text-dim:#8b949e;--cf-text-faint:#6e7681;--cf-accent:#a78bfa;--cf-accent-soft:rgba(167,139,250,0.16);--cf-green:#3fb950;--cf-amber:#d29922;--cf-red:#f85149;--cf-spark:#a78bfa;--cf-spark-bg:rgba(167,139,250,0.18)}@media (prefers-color-scheme: light){svg{--cf-bg:#ffffff;--cf-bg-alt:#f6f8fa;--cf-border:#d0d7de;--cf-text:#1f2328;--cf-text-dim:#656d76;--cf-text-faint:#8c959f;--cf-accent:#6f42c1;--cf-accent-soft:rgba(111,66,193,0.12);--cf-green:#1a7f37;--cf-amber:#9a6700;--cf-red:#cf222e;--cf-spark:#6f42c1;--cf-spark-bg:rgba(111,66,193,0.12)}}</style><rect width="720" height="140" rx="12" fill="var(--cf-bg)" stroke="var(--cf-border)"/><text x="18" y="26" font-size="13" font-weight="600" fill="var(--cf-text)">braedonsaunders/bidwright</text><text x="702" y="26" text-anchor="end" font-size="10" fill="var(--cf-text-faint)" font-family="ui-monospace,SFMono-Regular,Menlo,monospace">@34fadb9</text><g transform="translate(18,46)"><text x="0" y="0" font-size="9" font-weight="600" fill="var(--cf-text-dim)" letter-spacing="0.8">FILES</text><text x="0" y="28" font-size="22" font-weight="700" fill="var(--cf-text)">937</text><g transform="translate(0,40)"><svg width="64" height="14" viewBox="0 0 64 14" preserveAspectRatio="none"><path d="M0 14 L2.13 14 L4.27 14 L6.4 14 L8.53 14 L10.67 12.83 L12.8 12.83 L14.93 11.67 L17.07 10.5 L19.2 10.5 L21.33 10.5 L23.47 10.5 L25.6 10.5 L27.73 10.5 L29.87 10.5 L32 10.5 L34.13 9.33 L36.27 9.33 L38.4 9.33 L40.53 9.33 L42.67 9.33 L44.8 9.33 L46.93 8.17 L49.07 7 L51.2 7 L53.33 7 L55.47 2.33 L57.6 2.33 L59.73 2.33 L61.87 0 L64 0 L64 14 L0 14 Z" fill="var(--cf-spark-bg)" stroke="none"/><path d="M0 14 L2.13 14 L4.27 14 L6.4 14 L8.53 14 L10.67 12.83 L12.8 12.83 L14.93 11.67 L17.07 10.5 L19.2 10.5 L21.33 10.5 L23.47 10.5 L25.6 10.5 L27.73 10.5 L29.87 10.5 L32 10.5 L34.13 9.33 L36.27 9.33 L38.4 9.33 L40.53 9.33 L42.67 9.33 L44.8 9.33 L46.93 8.17 L49.07 7 L51.2 7 L53.33 7 L55.47 2.33 L57.6 2.33 L59.73 2.33 L61.87 0 L64 0" fill="none" stroke="var(--cf-spark)" stroke-width="1.4" stroke-linecap="round" stroke-linejoin="round"/></svg></g></g><g transform="translate(154.8,46)"><text x="0" y="0" font-size="9" font-weight="600" fill="var(--cf-text-dim)" letter-spacing="0.8">FNS</text><text x="0" y="28" font-size="22" font-weight="700" fill="var(--cf-text)">4.1K</text><g transform="translate(0,40)"><svg width="64" height="14" viewBox="0 0 64 14" preserveAspectRatio="none"><path d="M0 14 L2.13 13.46 L4.27 13.19 L6.4 13.19 L8.53 12.65 L10.67 10.77 L12.8 9.96 L14.93 8.62 L17.07 1.08 L19.2 1.08 L21.33 1.08 L23.47 1.88 L25.6 1.62 L27.73 1.62 L29.87 1.62 L32 0.81 L34.13 1.08 L36.27 1.08 L38.4 0.81 L40.53 0.81 L42.67 0.81 L44.8 0.81 L46.93 0 L49.07 0 L51.2 0 L53.33 0.27 L55.47 0.27 L57.6 0.27 L59.73 0.27 L61.87 0.27 L64 0.27 L64 14 L0 14 Z" fill="var(--cf-spark-bg)" stroke="none"/><path d="M0 14 L2.13 13.46 L4.27 13.19 L6.4 13.19 L8.53 12.65 L10.67 10.77 L12.8 9.96 L14.93 8.62 L17.07 1.08 L19.2 1.08 L21.33 1.08 L23.47 1.88 L25.6 1.62 L27.73 1.62 L29.87 1.62 L32 0.81 L34.13 1.08 L36.27 1.08 L38.4 0.81 L40.53 0.81 L42.67 0.81 L44.8 0.81 L46.93 0 L49.07 0 L51.2 0 L53.33 0.27 L55.47 0.27 L57.6 0.27 L59.73 0.27 L61.87 0.27 L64 0.27" fill="none" stroke="var(--cf-spark)" stroke-width="1.4" stroke-linecap="round" stroke-linejoin="round"/></svg></g></g><g transform="translate(291.6,46)"><text x="0" y="0" font-size="9" font-weight="600" fill="var(--cf-text-dim)" letter-spacing="0.8">LOC</text><text x="0" y="28" font-size="22" font-weight="700" fill="var(--cf-text)">313.9K</text><g transform="translate(0,40)"><svg width="64" height="14" viewBox="0 0 64 14" preserveAspectRatio="none"><path d="M0 14 L2.13 13.78 L4.27 13.4 L6.4 13 L8.53 12.73 L10.67 11.38 L12.8 10.48 L14.93 9.27 L17.07 4.79 L19.2 4.62 L21.33 4.62 L23.47 4.96 L25.6 4.88 L27.73 4.88 L29.87 4.85 L32 4.49 L34.13 3.63 L36.27 3.22 L38.4 2.91 L40.53 2.91 L42.67 2.89 L44.8 2.87 L46.93 2.15 L49.07 2.05 L51.2 2.56 L53.33 2.34 L55.47 1.05 L57.6 0.99 L59.73 1 L61.87 0.61 L64 0 L64 14 L0 14 Z" fill="var(--cf-spark-bg)" stroke="none"/><path d="M0 14 L2.13 13.78 L4.27 13.4 L6.4 13 L8.53 12.73 L10.67 11.38 L12.8 10.48 L14.93 9.27 L17.07 4.79 L19.2 4.62 L21.33 4.62 L23.47 4.96 L25.6 4.88 L27.73 4.88 L29.87 4.85 L32 4.49 L34.13 3.63 L36.27 3.22 L38.4 2.91 L40.53 2.91 L42.67 2.89 L44.8 2.87 L46.93 2.15 L49.07 2.05 L51.2 2.56 L53.33 2.34 L55.47 1.05 L57.6 0.99 L59.73 1 L61.87 0.61 L64 0" fill="none" stroke="var(--cf-spark)" stroke-width="1.4" stroke-linecap="round" stroke-linejoin="round"/></svg></g></g><g transform="translate(428.40000000000003,46)"><text x="0" y="0" font-size="9" font-weight="600" fill="var(--cf-text-dim)" letter-spacing="0.8">LANGS</text><text x="0" y="28" font-size="22" font-weight="700" fill="var(--cf-text)">21</text><g transform="translate(0,40)"><svg width="64" height="14" viewBox="0 0 64 14" preserveAspectRatio="none"><path d="M0 7 L2.13 7 L4.27 7 L6.4 7 L8.53 7 L10.67 7 L12.8 7 L14.93 7 L17.07 7 L19.2 7 L21.33 7 L23.47 7 L25.6 7 L27.73 7 L29.87 7 L32 7 L34.13 7 L36.27 7 L38.4 7 L40.53 7 L42.67 7 L44.8 7 L46.93 7 L49.07 7 L51.2 7 L53.33 7 L55.47 7 L57.6 7 L59.73 7 L61.87 7 L64 7 L64 14 L0 14 Z" fill="var(--cf-spark-bg)" stroke="none"/><path d="M0 7 L2.13 7 L4.27 7 L6.4 7 L8.53 7 L10.67 7 L12.8 7 L14.93 7 L17.07 7 L19.2 7 L21.33 7 L23.47 7 L25.6 7 L27.73 7 L29.87 7 L32 7 L34.13 7 L36.27 7 L38.4 7 L40.53 7 L42.67 7 L44.8 7 L46.93 7 L49.07 7 L51.2 7 L53.33 7 L55.47 7 L57.6 7 L59.73 7 L61.87 7 L64 7" fill="none" stroke="var(--cf-spark)" stroke-width="1.4" stroke-linecap="round" stroke-linejoin="round"/></svg></g></g><g transform="translate(565.2,46)"><text x="0" y="0" font-size="9" font-weight="600" fill="var(--cf-text-dim)" letter-spacing="0.8">TESTS</text><text x="0" y="28" font-size="22" font-weight="700" fill="var(--cf-text)">80</text><g transform="translate(0,40)"><svg width="64" height="14" viewBox="0 0 64 14" preserveAspectRatio="none"><path d="M0 14 L2.13 14 L4.27 14 L6.4 14 L8.53 14 L10.67 14 L12.8 14 L14.93 14 L17.07 14 L19.2 14 L21.33 14 L23.47 14 L25.6 14 L27.73 14 L29.87 14 L32 14 L34.13 14 L36.27 14 L38.4 14 L40.53 14 L42.67 14 L44.8 14 L46.93 7 L49.07 0 L51.2 0 L53.33 0 L55.47 0 L57.6 0 L59.73 0 L61.87 0 L64 0 L64 14 L0 14 Z" fill="var(--cf-spark-bg)" stroke="none"/><path d="M0 14 L2.13 14 L4.27 14 L6.4 14 L8.53 14 L10.67 14 L12.8 14 L14.93 14 L17.07 14 L19.2 14 L21.33 14 L23.47 14 L25.6 14 L27.73 14 L29.87 14 L32 14 L34.13 14 L36.27 14 L38.4 14 L40.53 14 L42.67 14 L44.8 14 L46.93 7 L49.07 0 L51.2 0 L53.33 0 L55.47 0 L57.6 0 L59.73 0 L61.87 0 L64 0" fill="none" stroke="var(--cf-spark)" stroke-width="1.4" stroke-linecap="round" stroke-linejoin="round"/></svg></g></g><a href="https://github.com/braedonsaunders/codeflow" target="_blank"><text x="702" y="130" text-anchor="end" font-size="9" fill="var(--cf-text-faint)">powered by <tspan font-weight="600" fill="var(--cf-accent)">codeflow</tspan></text></a></svg>