<svg xmlns="http://www.w3.org/2000/svg" width="720" height="140" viewBox="0 0 720 140" font-family="-apple-system,BlinkMacSystemFont,Segoe UI,Helvetica,Arial,sans-serif"><style>svg{--cf-bg:#0d1117;--cf-bg-alt:#161b22;--cf-border:#21262d;--cf-text:#e6edf3;--cf-text-dim:#8b949e;--cf-text-faint:#6e7681;--cf-accent:#a78bfa;--cf-accent-soft:rgba(167,139,250,0.16);--cf-green:#3fb950;--cf-amber:#d29922;--cf-red:#f85149;--cf-spark:#a78bfa;--cf-spark-bg:rgba(167,139,250,0.18)}@media (prefers-color-scheme: light){svg{--cf-bg:#ffffff;--cf-bg-alt:#f6f8fa;--cf-border:#d0d7de;--cf-text:#1f2328;--cf-text-dim:#656d76;--cf-text-faint:#8c959f;--cf-accent:#6f42c1;--cf-accent-soft:rgba(111,66,193,0.12);--cf-green:#1a7f37;--cf-amber:#9a6700;--cf-red:#cf222e;--cf-spark:#6f42c1;--cf-spark-bg:rgba(111,66,193,0.12)}}</style><rect width="720" height="140" rx="12" fill="var(--cf-bg)" stroke="var(--cf-border)"/><text x="18" y="26" font-size="13" font-weight="600" fill="var(--cf-text)">braedonsaunders/bidwright</text><text x="702" y="26" text-anchor="end" font-size="10" fill="var(--cf-text-faint)" font-family="ui-monospace,SFMono-Regular,Menlo,monospace">@f7dde6c</text><g transform="translate(18,46)"><text x="0" y="0" font-size="9" font-weight="600" fill="var(--cf-text-dim)" letter-spacing="0.8">FILES</text><text x="0" y="28" font-size="22" font-weight="700" fill="var(--cf-text)">929</text><g transform="translate(0,40)"><svg width="64" height="14" viewBox="0 0 64 14" preserveAspectRatio="none"><path d="M0 0 L2.37 14 L4.74 14 L7.11 14 L9.48 14 L11.85 14 L14.22 14 L16.59 14 L18.96 14 L21.33 14 L23.7 14 L26.07 14 L28.44 14 L30.81 14 L33.19 14 L35.56 14 L37.93 13.97 L40.3 13.97 L42.67 13.94 L45.04 13.91 L47.41 13.91 L49.78 13.91 L52.15 13.91 L54.52 13.91 L56.89 13.91 L59.26 13.91 L61.63 13.91 L64 13.87 L64 14 L0 14 Z" fill="var(--cf-spark-bg)" stroke="none"/><path d="M0 0 L2.37 14 L4.74 14 L7.11 14 L9.48 14 L11.85 14 L14.22 14 L16.59 14 L18.96 14 L21.33 14 L23.7 14 L26.07 14 L28.44 14 L30.81 14 L33.19 14 L35.56 14 L37.93 13.97 L40.3 13.97 L42.67 13.94 L45.04 13.91 L47.41 13.91 L49.78 13.91 L52.15 13.91 L54.52 13.91 L56.89 13.91 L59.26 13.91 L61.63 13.91 L64 13.87" fill="none" stroke="var(--cf-spark)" stroke-width="1.4" stroke-linecap="round" stroke-linejoin="round"/></svg></g></g><g transform="translate(154.8,46)"><text x="0" y="0" font-size="9" font-weight="600" fill="var(--cf-text-dim)" letter-spacing="0.8">FNS</text><text x="0" y="28" font-size="22" font-weight="700" fill="var(--cf-text)">4.1K</text><g transform="translate(0,40)"><svg width="64" height="14" viewBox="0 0 64 14" preserveAspectRatio="none"><path d="M0 14 L2.37 14 L4.74 14 L7.11 14 L9.48 14 L11.85 14 L14.22 14 L16.59 14 L18.96 14 L21.33 14 L23.7 14 L26.07 14 L28.44 13.43 L30.81 13.14 L33.19 13.14 L35.56 12.57 L37.93 10.57 L40.3 9.71 L42.67 8.29 L45.04 0.29 L47.41 0.29 L49.78 0.29 L52.15 1.14 L54.52 0.86 L56.89 0.86 L59.26 0.86 L61.63 0 L64 0.29 L64 14 L0 14 Z" fill="var(--cf-spark-bg)" stroke="none"/><path d="M0 14 L2.37 14 L4.74 14 L7.11 14 L9.48 14 L11.85 14 L14.22 14 L16.59 14 L18.96 14 L21.33 14 L23.7 14 L26.07 14 L28.44 13.43 L30.81 13.14 L33.19 13.14 L35.56 12.57 L37.93 10.57 L40.3 9.71 L42.67 8.29 L45.04 0.29 L47.41 0.29 L49.78 0.29 L52.15 1.14 L54.52 0.86 L56.89 0.86 L59.26 0.86 L61.63 0 L64 0.29" fill="none" stroke="var(--cf-spark)" stroke-width="1.4" stroke-linecap="round" stroke-linejoin="round"/></svg></g></g><g transform="translate(291.6,46)"><text x="0" y="0" font-size="9" font-weight="600" fill="var(--cf-text-dim)" letter-spacing="0.8">LOC</text><text x="0" y="28" font-size="22" font-weight="700" fill="var(--cf-text)">312.6K</text><g transform="translate(0,40)"><svg width="64" height="14" viewBox="0 0 64 14" preserveAspectRatio="none"><path d="M0 0 L2.37 14 L4.74 14 L7.11 14 L9.48 14 L11.85 14 L14.22 14 L16.59 14 L18.96 14 L21.33 14 L23.7 14 L26.07 14 L28.44 13.99 L30.81 13.99 L33.19 13.98 L35.56 13.98 L37.93 13.96 L40.3 13.94 L42.67 13.92 L45.04 13.85 L47.41 13.85 L49.78 13.85 L52.15 13.86 L54.52 13.86 L56.89 13.86 L59.26 13.85 L61.63 13.85 L64 13.84 L64 14 L0 14 Z" fill="var(--cf-spark-bg)" stroke="none"/><path d="M0 0 L2.37 14 L4.74 14 L7.11 14 L9.48 14 L11.85 14 L14.22 14 L16.59 14 L18.96 14 L21.33 14 L23.7 14 L26.07 14 L28.44 13.99 L30.81 13.99 L33.19 13.98 L35.56 13.98 L37.93 13.96 L40.3 13.94 L42.67 13.92 L45.04 13.85 L47.41 13.85 L49.78 13.85 L52.15 13.86 L54.52 13.86 L56.89 13.86 L59.26 13.85 L61.63 13.85 L64 13.84" fill="none" stroke="var(--cf-spark)" stroke-width="1.4" stroke-linecap="round" stroke-linejoin="round"/></svg></g></g><g transform="translate(428.40000000000003,46)"><text x="0" y="0" font-size="9" font-weight="600" fill="var(--cf-text-dim)" letter-spacing="0.8">LANGS</text><text x="0" y="28" font-size="22" font-weight="700" fill="var(--cf-text)">21</text><g transform="translate(0,40)"><svg width="64" height="14" viewBox="0 0 64 14" preserveAspectRatio="none"><path d="M0 0 L2.37 14 L4.74 14 L7.11 14 L9.48 14 L11.85 14 L14.22 14 L16.59 14 L18.96 14 L21.33 14 L23.7 14 L26.07 14 L28.44 14 L30.81 14 L33.19 14 L35.56 14 L37.93 14 L40.3 14 L42.67 14 L45.04 14 L47.41 14 L49.78 14 L52.15 14 L54.52 14 L56.89 14 L59.26 14 L61.63 14 L64 14 L64 14 L0 14 Z" fill="var(--cf-spark-bg)" stroke="none"/><path d="M0 0 L2.37 14 L4.74 14 L7.11 14 L9.48 14 L11.85 14 L14.22 14 L16.59 14 L18.96 14 L21.33 14 L23.7 14 L26.07 14 L28.44 14 L30.81 14 L33.19 14 L35.56 14 L37.93 14 L40.3 14 L42.67 14 L45.04 14 L47.41 14 L49.78 14 L52.15 14 L54.52 14 L56.89 14 L59.26 14 L61.63 14 L64 14" fill="none" stroke="var(--cf-spark)" stroke-width="1.4" stroke-linecap="round" stroke-linejoin="round"/></svg></g></g><g transform="translate(565.2,46)"><text x="0" y="0" font-size="9" font-weight="600" fill="var(--cf-text-dim)" letter-spacing="0.8">TESTS</text><text x="0" y="28" font-size="22" font-weight="700" fill="var(--cf-text)">78</text><g transform="translate(0,40)"><svg width="64" height="14" viewBox="0 0 64 14" preserveAspectRatio="none"><path d="M0 7 L2.37 7 L4.74 7 L7.11 7 L9.48 7 L11.85 7 L14.22 7 L16.59 7 L18.96 7 L21.33 7 L23.7 7 L26.07 7 L28.44 7 L30.81 7 L33.19 7 L35.56 7 L37.93 7 L40.3 7 L42.67 7 L45.04 7 L47.41 7 L49.78 7 L52.15 7 L54.52 7 L56.89 7 L59.26 7 L61.63 7 L64 7 L64 14 L0 14 Z" fill="var(--cf-spark-bg)" stroke="none"/><path d="M0 7 L2.37 7 L4.74 7 L7.11 7 L9.48 7 L11.85 7 L14.22 7 L16.59 7 L18.96 7 L21.33 7 L23.7 7 L26.07 7 L28.44 7 L30.81 7 L33.19 7 L35.56 7 L37.93 7 L40.3 7 L42.67 7 L45.04 7 L47.41 7 L49.78 7 L52.15 7 L54.52 7 L56.89 7 L59.26 7 L61.63 7 L64 7" fill="none" stroke="var(--cf-spark)" stroke-width="1.4" stroke-linecap="round" stroke-linejoin="round"/></svg></g></g><a href="https://github.com/braedonsaunders/codeflow" target="_blank"><text x="702" y="130" text-anchor="end" font-size="9" fill="var(--cf-text-faint)">powered by <tspan font-weight="600" fill="var(--cf-accent)">codeflow</tspan></text></a></svg>