<svg xmlns="http://www.w3.org/2000/svg" width="720" height="140" viewBox="0 0 720 140" font-family="-apple-system,BlinkMacSystemFont,Segoe UI,Helvetica,Arial,sans-serif"><style>svg{--cf-bg:#0d1117;--cf-bg-alt:#161b22;--cf-border:#21262d;--cf-text:#e6edf3;--cf-text-dim:#8b949e;--cf-text-faint:#6e7681;--cf-accent:#a78bfa;--cf-accent-soft:rgba(167,139,250,0.16);--cf-green:#3fb950;--cf-amber:#d29922;--cf-red:#f85149;--cf-spark:#a78bfa;--cf-spark-bg:rgba(167,139,250,0.18)}@media (prefers-color-scheme: light){svg{--cf-bg:#ffffff;--cf-bg-alt:#f6f8fa;--cf-border:#d0d7de;--cf-text:#1f2328;--cf-text-dim:#656d76;--cf-text-faint:#8c959f;--cf-accent:#6f42c1;--cf-accent-soft:rgba(111,66,193,0.12);--cf-green:#1a7f37;--cf-amber:#9a6700;--cf-red:#cf222e;--cf-spark:#6f42c1;--cf-spark-bg:rgba(111,66,193,0.12)}}</style><rect width="720" height="140" rx="12" fill="var(--cf-bg)" stroke="var(--cf-border)"/><text x="18" y="26" font-size="13" font-weight="600" fill="var(--cf-text)">braedonsaunders/bidwright</text><text x="702" y="26" text-anchor="end" font-size="10" fill="var(--cf-text-faint)" font-family="ui-monospace,SFMono-Regular,Menlo,monospace">@d23068a</text><g transform="translate(18,46)"><text x="0" y="0" font-size="9" font-weight="600" fill="var(--cf-text-dim)" letter-spacing="0.8">FILES</text><text x="0" y="28" font-size="22" font-weight="700" fill="var(--cf-text)">929</text><g transform="translate(0,40)"><svg width="64" height="14" viewBox="0 0 64 14" preserveAspectRatio="none"><path d="M0 0 L2.29 14 L4.57 14 L6.86 14 L9.14 14 L11.43 14 L13.71 14 L16 14 L18.29 14 L20.57 14 L22.86 14 L25.14 14 L27.43 14 L29.71 14 L32 14 L34.29 14 L36.57 13.97 L38.86 13.97 L41.14 13.94 L43.43 13.91 L45.71 13.91 L48 13.91 L50.29 13.91 L52.57 13.91 L54.86 13.91 L57.14 13.91 L59.43 13.91 L61.71 13.87 L64 13.87 L64 14 L0 14 Z" fill="var(--cf-spark-bg)" stroke="none"/><path d="M0 0 L2.29 14 L4.57 14 L6.86 14 L9.14 14 L11.43 14 L13.71 14 L16 14 L18.29 14 L20.57 14 L22.86 14 L25.14 14 L27.43 14 L29.71 14 L32 14 L34.29 14 L36.57 13.97 L38.86 13.97 L41.14 13.94 L43.43 13.91 L45.71 13.91 L48 13.91 L50.29 13.91 L52.57 13.91 L54.86 13.91 L57.14 13.91 L59.43 13.91 L61.71 13.87 L64 13.87" fill="none" stroke="var(--cf-spark)" stroke-width="1.4" stroke-linecap="round" stroke-linejoin="round"/></svg></g></g><g transform="translate(154.8,46)"><text x="0" y="0" font-size="9" font-weight="600" fill="var(--cf-text-dim)" letter-spacing="0.8">FNS</text><text x="0" y="28" font-size="22" font-weight="700" fill="var(--cf-text)">4.1K</text><g transform="translate(0,40)"><svg width="64" height="14" viewBox="0 0 64 14" preserveAspectRatio="none"><path d="M0 14 L2.29 14 L4.57 14 L6.86 14 L9.14 14 L11.43 14 L13.71 14 L16 14 L18.29 14 L20.57 14 L22.86 14 L25.14 14 L27.43 13.43 L29.71 13.14 L32 13.14 L34.29 12.57 L36.57 10.57 L38.86 9.71 L41.14 8.29 L43.43 0.29 L45.71 0.29 L48 0.29 L50.29 1.14 L52.57 0.86 L54.86 0.86 L57.14 0.86 L59.43 0 L61.71 0.29 L64 0.29 L64 14 L0 14 Z" fill="var(--cf-spark-bg)" stroke="none"/><path d="M0 14 L2.29 14 L4.57 14 L6.86 14 L9.14 14 L11.43 14 L13.71 14 L16 14 L18.29 14 L20.57 14 L22.86 14 L25.14 14 L27.43 13.43 L29.71 13.14 L32 13.14 L34.29 12.57 L36.57 10.57 L38.86 9.71 L41.14 8.29 L43.43 0.29 L45.71 0.29 L48 0.29 L50.29 1.14 L52.57 0.86 L54.86 0.86 L57.14 0.86 L59.43 0 L61.71 0.29 L64 0.29" fill="none" stroke="var(--cf-spark)" stroke-width="1.4" stroke-linecap="round" stroke-linejoin="round"/></svg></g></g><g transform="translate(291.6,46)"><text x="0" y="0" font-size="9" font-weight="600" fill="var(--cf-text-dim)" letter-spacing="0.8">LOC</text><text x="0" y="28" font-size="22" font-weight="700" fill="var(--cf-text)">312.8K</text><g transform="translate(0,40)"><svg width="64" height="14" viewBox="0 0 64 14" preserveAspectRatio="none"><path d="M0 0 L2.29 14 L4.57 14 L6.86 14 L9.14 14 L11.43 14 L13.71 14 L16 14 L18.29 14 L20.57 14 L22.86 14 L25.14 14 L27.43 13.99 L29.71 13.99 L32 13.98 L34.29 13.98 L36.57 13.96 L38.86 13.94 L41.14 13.92 L43.43 13.85 L45.71 13.85 L48 13.85 L50.29 13.86 L52.57 13.86 L54.86 13.86 L57.14 13.85 L59.43 13.85 L61.71 13.84 L64 13.83 L64 14 L0 14 Z" fill="var(--cf-spark-bg)" stroke="none"/><path d="M0 0 L2.29 14 L4.57 14 L6.86 14 L9.14 14 L11.43 14 L13.71 14 L16 14 L18.29 14 L20.57 14 L22.86 14 L25.14 14 L27.43 13.99 L29.71 13.99 L32 13.98 L34.29 13.98 L36.57 13.96 L38.86 13.94 L41.14 13.92 L43.43 13.85 L45.71 13.85 L48 13.85 L50.29 13.86 L52.57 13.86 L54.86 13.86 L57.14 13.85 L59.43 13.85 L61.71 13.84 L64 13.83" fill="none" stroke="var(--cf-spark)" stroke-width="1.4" stroke-linecap="round" stroke-linejoin="round"/></svg></g></g><g transform="translate(428.40000000000003,46)"><text x="0" y="0" font-size="9" font-weight="600" fill="var(--cf-text-dim)" letter-spacing="0.8">LANGS</text><text x="0" y="28" font-size="22" font-weight="700" fill="var(--cf-text)">21</text><g transform="translate(0,40)"><svg width="64" height="14" viewBox="0 0 64 14" preserveAspectRatio="none"><path d="M0 0 L2.29 14 L4.57 14 L6.86 14 L9.14 14 L11.43 14 L13.71 14 L16 14 L18.29 14 L20.57 14 L22.86 14 L25.14 14 L27.43 14 L29.71 14 L32 14 L34.29 14 L36.57 14 L38.86 14 L41.14 14 L43.43 14 L45.71 14 L48 14 L50.29 14 L52.57 14 L54.86 14 L57.14 14 L59.43 14 L61.71 14 L64 14 L64 14 L0 14 Z" fill="var(--cf-spark-bg)" stroke="none"/><path d="M0 0 L2.29 14 L4.57 14 L6.86 14 L9.14 14 L11.43 14 L13.71 14 L16 14 L18.29 14 L20.57 14 L22.86 14 L25.14 14 L27.43 14 L29.71 14 L32 14 L34.29 14 L36.57 14 L38.86 14 L41.14 14 L43.43 14 L45.71 14 L48 14 L50.29 14 L52.57 14 L54.86 14 L57.14 14 L59.43 14 L61.71 14 L64 14" fill="none" stroke="var(--cf-spark)" stroke-width="1.4" stroke-linecap="round" stroke-linejoin="round"/></svg></g></g><g transform="translate(565.2,46)"><text x="0" y="0" font-size="9" font-weight="600" fill="var(--cf-text-dim)" letter-spacing="0.8">TESTS</text><text x="0" y="28" font-size="22" font-weight="700" fill="var(--cf-text)">78</text><g transform="translate(0,40)"><svg width="64" height="14" viewBox="0 0 64 14" preserveAspectRatio="none"><path d="M0 7 L2.29 7 L4.57 7 L6.86 7 L9.14 7 L11.43 7 L13.71 7 L16 7 L18.29 7 L20.57 7 L22.86 7 L25.14 7 L27.43 7 L29.71 7 L32 7 L34.29 7 L36.57 7 L38.86 7 L41.14 7 L43.43 7 L45.71 7 L48 7 L50.29 7 L52.57 7 L54.86 7 L57.14 7 L59.43 7 L61.71 7 L64 7 L64 14 L0 14 Z" fill="var(--cf-spark-bg)" stroke="none"/><path d="M0 7 L2.29 7 L4.57 7 L6.86 7 L9.14 7 L11.43 7 L13.71 7 L16 7 L18.29 7 L20.57 7 L22.86 7 L25.14 7 L27.43 7 L29.71 7 L32 7 L34.29 7 L36.57 7 L38.86 7 L41.14 7 L43.43 7 L45.71 7 L48 7 L50.29 7 L52.57 7 L54.86 7 L57.14 7 L59.43 7 L61.71 7 L64 7" fill="none" stroke="var(--cf-spark)" stroke-width="1.4" stroke-linecap="round" stroke-linejoin="round"/></svg></g></g><a href="https://github.com/braedonsaunders/codeflow" target="_blank"><text x="702" y="130" text-anchor="end" font-size="9" fill="var(--cf-text-faint)">powered by <tspan font-weight="600" fill="var(--cf-accent)">codeflow</tspan></text></a></svg>