<svg xmlns="http://www.w3.org/2000/svg" width="720" height="140" viewBox="0 0 720 140" font-family="-apple-system,BlinkMacSystemFont,Segoe UI,Helvetica,Arial,sans-serif"><style>svg{--cf-bg:#0d1117;--cf-bg-alt:#161b22;--cf-border:#21262d;--cf-text:#e6edf3;--cf-text-dim:#8b949e;--cf-text-faint:#6e7681;--cf-accent:#a78bfa;--cf-accent-soft:rgba(167,139,250,0.16);--cf-green:#3fb950;--cf-amber:#d29922;--cf-red:#f85149;--cf-spark:#a78bfa;--cf-spark-bg:rgba(167,139,250,0.18)}@media (prefers-color-scheme: light){svg{--cf-bg:#ffffff;--cf-bg-alt:#f6f8fa;--cf-border:#d0d7de;--cf-text:#1f2328;--cf-text-dim:#656d76;--cf-text-faint:#8c959f;--cf-accent:#6f42c1;--cf-accent-soft:rgba(111,66,193,0.12);--cf-green:#1a7f37;--cf-amber:#9a6700;--cf-red:#cf222e;--cf-spark:#6f42c1;--cf-spark-bg:rgba(111,66,193,0.12)}}</style><rect width="720" height="140" rx="12" fill="var(--cf-bg)" stroke="var(--cf-border)"/><text x="18" y="26" font-size="13" font-weight="600" fill="var(--cf-text)">braedonsaunders/bidwright</text><text x="702" y="26" text-anchor="end" font-size="10" fill="var(--cf-text-faint)" font-family="ui-monospace,SFMono-Regular,Menlo,monospace">@51f64e2</text><g transform="translate(18,46)"><text x="0" y="0" font-size="9" font-weight="600" fill="var(--cf-text-dim)" letter-spacing="0.8">FILES</text><text x="0" y="28" font-size="22" font-weight="700" fill="var(--cf-text)">1.1K</text><g transform="translate(0,40)"><svg width="64" height="14" viewBox="0 0 64 14" preserveAspectRatio="none"><path d="M0 14 L2.13 14 L4.27 14 L6.4 14 L8.53 7.97 L10.67 7.97 L12.8 7.84 L14.93 7.72 L17.07 7.72 L19.2 7.72 L21.33 7.72 L23.47 7.72 L25.6 7.97 L27.73 7.97 L29.87 7.97 L32 7.24 L34.13 5.55 L36.27 5.43 L38.4 5.43 L40.53 5.43 L42.67 5.43 L44.8 5.43 L46.93 5.43 L49.07 5.43 L51.2 5.43 L53.33 5.43 L55.47 5.43 L57.6 5.43 L59.73 5.43 L61.87 5.19 L64 0 L64 14 L0 14 Z" fill="var(--cf-spark-bg)" stroke="none"/><path d="M0 14 L2.13 14 L4.27 14 L6.4 14 L8.53 7.97 L10.67 7.97 L12.8 7.84 L14.93 7.72 L17.07 7.72 L19.2 7.72 L21.33 7.72 L23.47 7.72 L25.6 7.97 L27.73 7.97 L29.87 7.97 L32 7.24 L34.13 5.55 L36.27 5.43 L38.4 5.43 L40.53 5.43 L42.67 5.43 L44.8 5.43 L46.93 5.43 L49.07 5.43 L51.2 5.43 L53.33 5.43 L55.47 5.43 L57.6 5.43 L59.73 5.43 L61.87 5.19 L64 0" fill="none" stroke="var(--cf-spark)" stroke-width="1.4" stroke-linecap="round" stroke-linejoin="round"/></svg></g></g><g transform="translate(154.8,46)"><text x="0" y="0" font-size="9" font-weight="600" fill="var(--cf-text-dim)" letter-spacing="0.8">FNS</text><text x="0" y="28" font-size="22" font-weight="700" fill="var(--cf-text)">6.6K</text><g transform="translate(0,40)"><svg width="64" height="14" viewBox="0 0 64 14" preserveAspectRatio="none"><path d="M0 14 L2.13 14 L4.27 14 L6.4 14 L8.53 6.16 L10.67 6.16 L12.8 6.16 L14.93 6.16 L17.07 6.12 L19.2 6.12 L21.33 6.12 L23.47 6.11 L25.6 6.43 L27.73 6.39 L29.87 6.38 L32 5.04 L34.13 4.72 L36.27 4.66 L38.4 4.65 L40.53 4.65 L42.67 4.65 L44.8 4.58 L46.93 4.56 L49.07 4.56 L51.2 4.53 L53.33 4.51 L55.47 4.51 L57.6 4.51 L59.73 4.51 L61.87 4.1 L64 0 L64 14 L0 14 Z" fill="var(--cf-spark-bg)" stroke="none"/><path d="M0 14 L2.13 14 L4.27 14 L6.4 14 L8.53 6.16 L10.67 6.16 L12.8 6.16 L14.93 6.16 L17.07 6.12 L19.2 6.12 L21.33 6.12 L23.47 6.11 L25.6 6.43 L27.73 6.39 L29.87 6.38 L32 5.04 L34.13 4.72 L36.27 4.66 L38.4 4.65 L40.53 4.65 L42.67 4.65 L44.8 4.58 L46.93 4.56 L49.07 4.56 L51.2 4.53 L53.33 4.51 L55.47 4.51 L57.6 4.51 L59.73 4.51 L61.87 4.1 L64 0" fill="none" stroke="var(--cf-spark)" stroke-width="1.4" stroke-linecap="round" stroke-linejoin="round"/></svg></g></g><g transform="translate(291.6,46)"><text x="0" y="0" font-size="9" font-weight="600" fill="var(--cf-text-dim)" letter-spacing="0.8">LOC</text><text x="0" y="28" font-size="22" font-weight="700" fill="var(--cf-text)">412.9K</text><g transform="translate(0,40)"><svg width="64" height="14" viewBox="0 0 64 14" preserveAspectRatio="none"><path d="M0 13.98 L2.13 14 L4.27 14 L6.4 13.98 L8.53 6.84 L10.67 6.84 L12.8 6.81 L14.93 6.81 L17.07 6.75 L19.2 6.75 L21.33 6.74 L23.47 6.74 L25.6 7.18 L27.73 7.22 L29.87 7.19 L32 5.52 L34.13 3.93 L36.27 3.83 L38.4 3.8 L40.53 3.78 L42.67 3.78 L44.8 3.68 L46.93 3.64 L49.07 3.64 L51.2 3.61 L53.33 3.55 L55.47 3.55 L57.6 3.55 L59.73 3.55 L61.87 3.24 L64 0 L64 14 L0 14 Z" fill="var(--cf-spark-bg)" stroke="none"/><path d="M0 13.98 L2.13 14 L4.27 14 L6.4 13.98 L8.53 6.84 L10.67 6.84 L12.8 6.81 L14.93 6.81 L17.07 6.75 L19.2 6.75 L21.33 6.74 L23.47 6.74 L25.6 7.18 L27.73 7.22 L29.87 7.19 L32 5.52 L34.13 3.93 L36.27 3.83 L38.4 3.8 L40.53 3.78 L42.67 3.78 L44.8 3.68 L46.93 3.64 L49.07 3.64 L51.2 3.61 L53.33 3.55 L55.47 3.55 L57.6 3.55 L59.73 3.55 L61.87 3.24 L64 0" fill="none" stroke="var(--cf-spark)" stroke-width="1.4" stroke-linecap="round" stroke-linejoin="round"/></svg></g></g><g transform="translate(428.40000000000003,46)"><text x="0" y="0" font-size="9" font-weight="600" fill="var(--cf-text-dim)" letter-spacing="0.8">LANGS</text><text x="0" y="28" font-size="22" font-weight="700" fill="var(--cf-text)">22</text><g transform="translate(0,40)"><svg width="64" height="14" viewBox="0 0 64 14" preserveAspectRatio="none"><path d="M0 14 L2.13 14 L4.27 14 L6.4 14 L8.53 14 L10.67 14 L12.8 14 L14.93 14 L17.07 14 L19.2 14 L21.33 14 L23.47 14 L25.6 14 L27.73 14 L29.87 14 L32 14 L34.13 14 L36.27 14 L38.4 14 L40.53 14 L42.67 14 L44.8 14 L46.93 14 L49.07 14 L51.2 14 L53.33 14 L55.47 14 L57.6 14 L59.73 14 L61.87 14 L64 0 L64 14 L0 14 Z" fill="var(--cf-spark-bg)" stroke="none"/><path d="M0 14 L2.13 14 L4.27 14 L6.4 14 L8.53 14 L10.67 14 L12.8 14 L14.93 14 L17.07 14 L19.2 14 L21.33 14 L23.47 14 L25.6 14 L27.73 14 L29.87 14 L32 14 L34.13 14 L36.27 14 L38.4 14 L40.53 14 L42.67 14 L44.8 14 L46.93 14 L49.07 14 L51.2 14 L53.33 14 L55.47 14 L57.6 14 L59.73 14 L61.87 14 L64 0" fill="none" stroke="var(--cf-spark)" stroke-width="1.4" stroke-linecap="round" stroke-linejoin="round"/></svg></g></g><g transform="translate(565.2,46)"><text x="0" y="0" font-size="9" font-weight="600" fill="var(--cf-text-dim)" letter-spacing="0.8">TESTS</text><text x="0" y="28" font-size="22" font-weight="700" fill="var(--cf-text)">95</text><g transform="translate(0,40)"><svg width="64" height="14" viewBox="0 0 64 14" preserveAspectRatio="none"><path d="M0 14 L2.13 14 L4.27 14 L6.4 14 L8.53 0.93 L10.67 0.93 L12.8 0.93 L14.93 0.93 L17.07 0.93 L19.2 0.93 L21.33 0.93 L23.47 0.93 L25.6 0.93 L27.73 0.93 L29.87 0.93 L32 0 L34.13 0 L36.27 0 L38.4 0 L40.53 0 L42.67 0 L44.8 0 L46.93 0 L49.07 0 L51.2 0 L53.33 0 L55.47 0 L57.6 0 L59.73 0 L61.87 0 L64 0 L64 14 L0 14 Z" fill="var(--cf-spark-bg)" stroke="none"/><path d="M0 14 L2.13 14 L4.27 14 L6.4 14 L8.53 0.93 L10.67 0.93 L12.8 0.93 L14.93 0.93 L17.07 0.93 L19.2 0.93 L21.33 0.93 L23.47 0.93 L25.6 0.93 L27.73 0.93 L29.87 0.93 L32 0 L34.13 0 L36.27 0 L38.4 0 L40.53 0 L42.67 0 L44.8 0 L46.93 0 L49.07 0 L51.2 0 L53.33 0 L55.47 0 L57.6 0 L59.73 0 L61.87 0 L64 0" fill="none" stroke="var(--cf-spark)" stroke-width="1.4" stroke-linecap="round" stroke-linejoin="round"/></svg></g></g><a href="https://github.com/braedonsaunders/codeflow" target="_blank"><text x="702" y="130" text-anchor="end" font-size="9" fill="var(--cf-text-faint)">powered by <tspan font-weight="600" fill="var(--cf-accent)">codeflow</tspan></text></a></svg>