<svg xmlns="http://www.w3.org/2000/svg" width="720" height="140" viewBox="0 0 720 140" font-family="-apple-system,BlinkMacSystemFont,Segoe UI,Helvetica,Arial,sans-serif"><rect width="720" height="140" rx="12" fill="#0d1117" stroke="#21262d"/><text x="18" y="26" font-size="13" font-weight="600" fill="#e6edf3">braedonsaunders/bidwright</text><text x="702" y="26" text-anchor="end" font-size="10" fill="#6e7681" font-family="ui-monospace,SFMono-Regular,Menlo,monospace">@2381826</text><g transform="translate(18,46)"><text x="0" y="0" font-size="9" font-weight="600" fill="#8b949e" letter-spacing="0.8">HEALTH</text><text x="0" y="58" font-size="56" font-weight="700" fill="#f85149" font-family="ui-monospace,SFMono-Regular,Menlo,monospace">F</text><text x="84" y="58" font-size="20" font-weight="600" fill="#e6edf3">59</text><text x="84" y="74" font-size="8" fill="#6e7681" letter-spacing="0.6">/100</text></g><g transform="translate(166,46)"><text x="0" y="0" font-size="9" font-weight="600" fill="#8b949e" letter-spacing="0.8">FILES</text><text x="0" y="28" font-size="22" font-weight="700" fill="#e6edf3">925</text><g transform="translate(0,40)"><svg width="64" height="14" viewBox="0 0 64 14" preserveAspectRatio="none"><path d="M0 0 L16 14 L32 14 L48 14 L64 14 L64 14 L0 14 Z" fill="rgba(167,139,250,0.18)" stroke="none"/><path d="M0 0 L16 14 L32 14 L48 14 L64 14" fill="none" stroke="#a78bfa" stroke-width="1.4" stroke-linecap="round" stroke-linejoin="round"/></svg></g></g><g transform="translate(300,46)"><text x="0" y="0" font-size="9" font-weight="600" fill="#8b949e" letter-spacing="0.8">FNS</text><text x="0" y="28" font-size="22" font-weight="700" fill="#e6edf3">4.1K</text><g transform="translate(0,40)"><svg width="64" height="14" viewBox="0 0 64 14" preserveAspectRatio="none"><path d="M0 7 L16 7 L32 7 L48 7 L64 7 L64 14 L0 14 Z" fill="rgba(167,139,250,0.18)" stroke="none"/><path d="M0 7 L16 7 L32 7 L48 7 L64 7" fill="none" stroke="#a78bfa" stroke-width="1.4" stroke-linecap="round" stroke-linejoin="round"/></svg></g></g><g transform="translate(434,46)"><text x="0" y="0" font-size="9" font-weight="600" fill="#8b949e" letter-spacing="0.8">LOC</text><text x="0" y="28" font-size="22" font-weight="700" fill="#e6edf3">308.9K</text><g transform="translate(0,40)"><svg width="64" height="14" viewBox="0 0 64 14" preserveAspectRatio="none"><path d="M0 0 L16 14 L32 14 L48 14 L64 14 L64 14 L0 14 Z" fill="rgba(167,139,250,0.18)" stroke="none"/><path d="M0 0 L16 14 L32 14 L48 14 L64 14" fill="none" stroke="#a78bfa" stroke-width="1.4" stroke-linecap="round" stroke-linejoin="round"/></svg></g></g><g transform="translate(568,46)"><text x="0" y="0" font-size="9" font-weight="600" fill="#8b949e" letter-spacing="0.8">LANGS</text><text x="0" y="28" font-size="22" font-weight="700" fill="#e6edf3">21</text><g transform="translate(0,40)"><svg width="64" height="14" viewBox="0 0 64 14" preserveAspectRatio="none"><path d="M0 0 L16 14 L32 14 L48 14 L64 14 L64 14 L0 14 Z" fill="rgba(167,139,250,0.18)" stroke="none"/><path d="M0 0 L16 14 L32 14 L48 14 L64 14" fill="none" stroke="#a78bfa" stroke-width="1.4" stroke-linecap="round" stroke-linejoin="round"/></svg></g></g><a href="https://github.com/braedonsaunders/codeflow" target="_blank"><text x="702" y="130" text-anchor="end" font-size="9" fill="#6e7681">powered by <tspan font-weight="600" fill="#a78bfa">codeflow</tspan></text></a></svg>