<svg xmlns="http://www.w3.org/2000/svg" width="720" height="140" viewBox="0 0 720 140" font-family="-apple-system,BlinkMacSystemFont,Segoe UI,Helvetica,Arial,sans-serif"><style>svg{--cf-bg:#0d1117;--cf-bg-alt:#161b22;--cf-border:#21262d;--cf-text:#e6edf3;--cf-text-dim:#8b949e;--cf-text-faint:#6e7681;--cf-accent:#a78bfa;--cf-accent-soft:rgba(167,139,250,0.16);--cf-green:#3fb950;--cf-amber:#d29922;--cf-red:#f85149;--cf-spark:#a78bfa;--cf-spark-bg:rgba(167,139,250,0.18)}@media (prefers-color-scheme: light){svg{--cf-bg:#ffffff;--cf-bg-alt:#f6f8fa;--cf-border:#d0d7de;--cf-text:#1f2328;--cf-text-dim:#656d76;--cf-text-faint:#8c959f;--cf-accent:#6f42c1;--cf-accent-soft:rgba(111,66,193,0.12);--cf-green:#1a7f37;--cf-amber:#9a6700;--cf-red:#cf222e;--cf-spark:#6f42c1;--cf-spark-bg:rgba(111,66,193,0.12)}}</style><rect width="720" height="140" rx="12" fill="var(--cf-bg)" stroke="var(--cf-border)"/><text x="18" y="26" font-size="13" font-weight="600" fill="var(--cf-text)">braedonsaunders/bidwright</text><text x="702" y="26" text-anchor="end" font-size="10" fill="var(--cf-text-faint)" font-family="ui-monospace,SFMono-Regular,Menlo,monospace">@1bdd007</text><g transform="translate(18,46)"><text x="0" y="0" font-size="9" font-weight="600" fill="var(--cf-text-dim)" letter-spacing="0.8">FILES</text><text x="0" y="28" font-size="22" font-weight="700" fill="var(--cf-text)">1.1K</text><g transform="translate(0,40)"><svg width="64" height="14" viewBox="0 0 64 14" preserveAspectRatio="none"><path d="M0 14 L2.13 13.83 L4.27 13.83 L6.4 12.44 L8.53 12.44 L10.67 12.44 L12.8 12.44 L14.93 12.44 L17.07 12.44 L19.2 12.44 L21.33 12.27 L23.47 12.27 L25.6 12.27 L27.73 12.27 L29.87 3.63 L32 3.63 L34.13 3.46 L36.27 3.28 L38.4 3.28 L40.53 3.28 L42.67 3.28 L44.8 3.28 L46.93 3.63 L49.07 3.63 L51.2 3.63 L53.33 2.59 L55.47 0.17 L57.6 0 L59.73 0 L61.87 0 L64 0 L64 14 L0 14 Z" fill="var(--cf-spark-bg)" stroke="none"/><path d="M0 14 L2.13 13.83 L4.27 13.83 L6.4 12.44 L8.53 12.44 L10.67 12.44 L12.8 12.44 L14.93 12.44 L17.07 12.44 L19.2 12.44 L21.33 12.27 L23.47 12.27 L25.6 12.27 L27.73 12.27 L29.87 3.63 L32 3.63 L34.13 3.46 L36.27 3.28 L38.4 3.28 L40.53 3.28 L42.67 3.28 L44.8 3.28 L46.93 3.63 L49.07 3.63 L51.2 3.63 L53.33 2.59 L55.47 0.17 L57.6 0 L59.73 0 L61.87 0 L64 0" fill="none" stroke="var(--cf-spark)" stroke-width="1.4" stroke-linecap="round" stroke-linejoin="round"/></svg></g></g><g transform="translate(154.8,46)"><text x="0" y="0" font-size="9" font-weight="600" fill="var(--cf-text-dim)" letter-spacing="0.8">FNS</text><text x="0" y="28" font-size="22" font-weight="700" fill="var(--cf-text)">5.8K</text><g transform="translate(0,40)"><svg width="64" height="14" viewBox="0 0 64 14" preserveAspectRatio="none"><path d="M0 14 L2.13 13.93 L4.27 13.93 L6.4 13.56 L8.53 13.56 L10.67 13.56 L12.8 13.54 L14.93 13.54 L17.07 13.54 L19.2 13.54 L21.33 13.54 L23.47 13.54 L25.6 13.54 L27.73 13.54 L29.87 2.19 L32 2.19 L34.13 2.19 L36.27 2.19 L38.4 2.14 L40.53 2.14 L42.67 2.13 L44.8 2.12 L46.93 2.58 L49.07 2.53 L51.2 2.52 L53.33 0.58 L55.47 0.11 L57.6 0.03 L59.73 0 L61.87 0 L64 0 L64 14 L0 14 Z" fill="var(--cf-spark-bg)" stroke="none"/><path d="M0 14 L2.13 13.93 L4.27 13.93 L6.4 13.56 L8.53 13.56 L10.67 13.56 L12.8 13.54 L14.93 13.54 L17.07 13.54 L19.2 13.54 L21.33 13.54 L23.47 13.54 L25.6 13.54 L27.73 13.54 L29.87 2.19 L32 2.19 L34.13 2.19 L36.27 2.19 L38.4 2.14 L40.53 2.14 L42.67 2.13 L44.8 2.12 L46.93 2.58 L49.07 2.53 L51.2 2.52 L53.33 0.58 L55.47 0.11 L57.6 0.03 L59.73 0 L61.87 0 L64 0" fill="none" stroke="var(--cf-spark)" stroke-width="1.4" stroke-linecap="round" stroke-linejoin="round"/></svg></g></g><g transform="translate(291.6,46)"><text x="0" y="0" font-size="9" font-weight="600" fill="var(--cf-text-dim)" letter-spacing="0.8">LOC</text><text x="0" y="28" font-size="22" font-weight="700" fill="var(--cf-text)">388.8K</text><g transform="translate(0,40)"><svg width="64" height="14" viewBox="0 0 64 14" preserveAspectRatio="none"><path d="M0 14 L2.13 13.95 L4.27 13.95 L6.4 13.63 L8.53 13.63 L10.67 13.63 L12.8 13.61 L14.93 13.61 L17.07 13.61 L19.2 13.61 L21.33 13.6 L23.47 13.62 L25.6 13.62 L27.73 13.59 L29.87 4.08 L32 4.08 L34.13 4.04 L36.27 4.03 L38.4 3.96 L40.53 3.96 L42.67 3.95 L44.8 3.95 L46.93 4.53 L49.07 4.59 L51.2 4.54 L53.33 2.32 L55.47 0.2 L57.6 0.06 L59.73 0.02 L61.87 0 L64 0 L64 14 L0 14 Z" fill="var(--cf-spark-bg)" stroke="none"/><path d="M0 14 L2.13 13.95 L4.27 13.95 L6.4 13.63 L8.53 13.63 L10.67 13.63 L12.8 13.61 L14.93 13.61 L17.07 13.61 L19.2 13.61 L21.33 13.6 L23.47 13.62 L25.6 13.62 L27.73 13.59 L29.87 4.08 L32 4.08 L34.13 4.04 L36.27 4.03 L38.4 3.96 L40.53 3.96 L42.67 3.95 L44.8 3.95 L46.93 4.53 L49.07 4.59 L51.2 4.54 L53.33 2.32 L55.47 0.2 L57.6 0.06 L59.73 0.02 L61.87 0 L64 0" fill="none" stroke="var(--cf-spark)" stroke-width="1.4" stroke-linecap="round" stroke-linejoin="round"/></svg></g></g><g transform="translate(428.40000000000003,46)"><text x="0" y="0" font-size="9" font-weight="600" fill="var(--cf-text-dim)" letter-spacing="0.8">LANGS</text><text x="0" y="28" font-size="22" font-weight="700" fill="var(--cf-text)">21</text><g transform="translate(0,40)"><svg width="64" height="14" viewBox="0 0 64 14" preserveAspectRatio="none"><path d="M0 7 L2.13 7 L4.27 7 L6.4 7 L8.53 7 L10.67 7 L12.8 7 L14.93 7 L17.07 7 L19.2 7 L21.33 7 L23.47 7 L25.6 7 L27.73 7 L29.87 7 L32 7 L34.13 7 L36.27 7 L38.4 7 L40.53 7 L42.67 7 L44.8 7 L46.93 7 L49.07 7 L51.2 7 L53.33 7 L55.47 7 L57.6 7 L59.73 7 L61.87 7 L64 7 L64 14 L0 14 Z" fill="var(--cf-spark-bg)" stroke="none"/><path d="M0 7 L2.13 7 L4.27 7 L6.4 7 L8.53 7 L10.67 7 L12.8 7 L14.93 7 L17.07 7 L19.2 7 L21.33 7 L23.47 7 L25.6 7 L27.73 7 L29.87 7 L32 7 L34.13 7 L36.27 7 L38.4 7 L40.53 7 L42.67 7 L44.8 7 L46.93 7 L49.07 7 L51.2 7 L53.33 7 L55.47 7 L57.6 7 L59.73 7 L61.87 7 L64 7" fill="none" stroke="var(--cf-spark)" stroke-width="1.4" stroke-linecap="round" stroke-linejoin="round"/></svg></g></g><g transform="translate(565.2,46)"><text x="0" y="0" font-size="9" font-weight="600" fill="var(--cf-text-dim)" letter-spacing="0.8">TESTS</text><text x="0" y="28" font-size="22" font-weight="700" fill="var(--cf-text)">95</text><g transform="translate(0,40)"><svg width="64" height="14" viewBox="0 0 64 14" preserveAspectRatio="none"><path d="M0 14 L2.13 14 L4.27 14 L6.4 14 L8.53 14 L10.67 14 L12.8 14 L14.93 14 L17.07 14 L19.2 14 L21.33 14 L23.47 14 L25.6 14 L27.73 14 L29.87 0.93 L32 0.93 L34.13 0.93 L36.27 0.93 L38.4 0.93 L40.53 0.93 L42.67 0.93 L44.8 0.93 L46.93 0.93 L49.07 0.93 L51.2 0.93 L53.33 0 L55.47 0 L57.6 0 L59.73 0 L61.87 0 L64 0 L64 14 L0 14 Z" fill="var(--cf-spark-bg)" stroke="none"/><path d="M0 14 L2.13 14 L4.27 14 L6.4 14 L8.53 14 L10.67 14 L12.8 14 L14.93 14 L17.07 14 L19.2 14 L21.33 14 L23.47 14 L25.6 14 L27.73 14 L29.87 0.93 L32 0.93 L34.13 0.93 L36.27 0.93 L38.4 0.93 L40.53 0.93 L42.67 0.93 L44.8 0.93 L46.93 0.93 L49.07 0.93 L51.2 0.93 L53.33 0 L55.47 0 L57.6 0 L59.73 0 L61.87 0 L64 0" fill="none" stroke="var(--cf-spark)" stroke-width="1.4" stroke-linecap="round" stroke-linejoin="round"/></svg></g></g><a href="https://github.com/braedonsaunders/codeflow" target="_blank"><text x="702" y="130" text-anchor="end" font-size="9" fill="var(--cf-text-faint)">powered by <tspan font-weight="600" fill="var(--cf-accent)">codeflow</tspan></text></a></svg>