<svg xmlns="http://www.w3.org/2000/svg" width="720" height="140" viewBox="0 0 720 140" font-family="-apple-system,BlinkMacSystemFont,Segoe UI,Helvetica,Arial,sans-serif"><style>svg{--cf-bg:#0d1117;--cf-bg-alt:#161b22;--cf-border:#21262d;--cf-text:#e6edf3;--cf-text-dim:#8b949e;--cf-text-faint:#6e7681;--cf-accent:#a78bfa;--cf-accent-soft:rgba(167,139,250,0.16);--cf-green:#3fb950;--cf-amber:#d29922;--cf-red:#f85149;--cf-spark:#a78bfa;--cf-spark-bg:rgba(167,139,250,0.18)}@media (prefers-color-scheme: light){svg{--cf-bg:#ffffff;--cf-bg-alt:#f6f8fa;--cf-border:#d0d7de;--cf-text:#1f2328;--cf-text-dim:#656d76;--cf-text-faint:#8c959f;--cf-accent:#6f42c1;--cf-accent-soft:rgba(111,66,193,0.12);--cf-green:#1a7f37;--cf-amber:#9a6700;--cf-red:#cf222e;--cf-spark:#6f42c1;--cf-spark-bg:rgba(111,66,193,0.12)}}</style><rect width="720" height="140" rx="12" fill="var(--cf-bg)" stroke="var(--cf-border)"/><text x="18" y="26" font-size="13" font-weight="600" fill="var(--cf-text)">braedonsaunders/bidwright</text><text x="702" y="26" text-anchor="end" font-size="10" fill="var(--cf-text-faint)" font-family="ui-monospace,SFMono-Regular,Menlo,monospace">@0b9a62e</text><g transform="translate(18,46)"><text x="0" y="0" font-size="9" font-weight="600" fill="var(--cf-text-dim)" letter-spacing="0.8">FILES</text><text x="0" y="28" font-size="22" font-weight="700" fill="var(--cf-text)">1.4K</text><g transform="translate(0,40)"><svg width="64" height="14" viewBox="0 0 64 14" preserveAspectRatio="none"><path d="M0 14 L2.13 14 L4.27 14 L6.4 13.89 L8.53 12.19 L10.67 11.74 L12.8 11.63 L14.93 11.63 L17.07 9.26 L19.2 8.13 L21.33 8.02 L23.47 8.02 L25.6 6.89 L27.73 6.66 L29.87 6.32 L32 6.32 L34.13 5.19 L36.27 5.19 L38.4 5.42 L40.53 5.42 L42.67 5.19 L44.8 5.08 L46.93 4.52 L49.07 4.4 L51.2 3.61 L53.33 3.61 L55.47 0.45 L57.6 0.45 L59.73 0.34 L61.87 0.34 L64 0 L64 14 L0 14 Z" fill="var(--cf-spark-bg)" stroke="none"/><path d="M0 14 L2.13 14 L4.27 14 L6.4 13.89 L8.53 12.19 L10.67 11.74 L12.8 11.63 L14.93 11.63 L17.07 9.26 L19.2 8.13 L21.33 8.02 L23.47 8.02 L25.6 6.89 L27.73 6.66 L29.87 6.32 L32 6.32 L34.13 5.19 L36.27 5.19 L38.4 5.42 L40.53 5.42 L42.67 5.19 L44.8 5.08 L46.93 4.52 L49.07 4.4 L51.2 3.61 L53.33 3.61 L55.47 0.45 L57.6 0.45 L59.73 0.34 L61.87 0.34 L64 0" fill="none" stroke="var(--cf-spark)" stroke-width="1.4" stroke-linecap="round" stroke-linejoin="round"/></svg></g></g><g transform="translate(154.8,46)"><text x="0" y="0" font-size="9" font-weight="600" fill="var(--cf-text-dim)" letter-spacing="0.8">FNS</text><text x="0" y="28" font-size="22" font-weight="700" fill="var(--cf-text)">8K</text><g transform="translate(0,40)"><svg width="64" height="14" viewBox="0 0 64 14" preserveAspectRatio="none"><path d="M0 14 L2.13 14 L4.27 14 L6.4 13.78 L8.53 12.41 L10.67 12.04 L12.8 12.01 L14.93 12.01 L17.07 8.98 L19.2 7.83 L21.33 7.42 L23.47 7.42 L25.6 6.58 L27.73 6.43 L29.87 5.98 L32 5.76 L34.13 4.51 L36.27 4.47 L38.4 8.39 L40.53 8.39 L42.67 8.27 L44.8 8.09 L46.93 7.91 L49.07 7.87 L51.2 7.68 L53.33 7.68 L55.47 0.52 L57.6 0.52 L59.73 0.52 L61.87 0.52 L64 0 L64 14 L0 14 Z" fill="var(--cf-spark-bg)" stroke="none"/><path d="M0 14 L2.13 14 L4.27 14 L6.4 13.78 L8.53 12.41 L10.67 12.04 L12.8 12.01 L14.93 12.01 L17.07 8.98 L19.2 7.83 L21.33 7.42 L23.47 7.42 L25.6 6.58 L27.73 6.43 L29.87 5.98 L32 5.76 L34.13 4.51 L36.27 4.47 L38.4 8.39 L40.53 8.39 L42.67 8.27 L44.8 8.09 L46.93 7.91 L49.07 7.87 L51.2 7.68 L53.33 7.68 L55.47 0.52 L57.6 0.52 L59.73 0.52 L61.87 0.52 L64 0" fill="none" stroke="var(--cf-spark)" stroke-width="1.4" stroke-linecap="round" stroke-linejoin="round"/></svg></g></g><g transform="translate(291.6,46)"><text x="0" y="0" font-size="9" font-weight="600" fill="var(--cf-text-dim)" letter-spacing="0.8">LOC</text><text x="0" y="28" font-size="22" font-weight="700" fill="var(--cf-text)">503K</text><g transform="translate(0,40)"><svg width="64" height="14" viewBox="0 0 64 14" preserveAspectRatio="none"><path d="M0 14 L2.13 13.99 L4.27 13.98 L6.4 13.78 L8.53 11.96 L10.67 11.24 L12.8 10.94 L14.93 10.94 L17.07 8.82 L19.2 7.54 L21.33 7.11 L23.47 7.11 L25.6 5.16 L27.73 4.95 L29.87 4.07 L32 3.97 L34.13 2.77 L36.27 2.76 L38.4 5.81 L40.53 5.81 L42.67 5.72 L44.8 5.55 L46.93 5.32 L49.07 5.27 L51.2 4.99 L53.33 4.99 L55.47 0.64 L57.6 0.64 L59.73 0.58 L61.87 0.57 L64 0 L64 14 L0 14 Z" fill="var(--cf-spark-bg)" stroke="none"/><path d="M0 14 L2.13 13.99 L4.27 13.98 L6.4 13.78 L8.53 11.96 L10.67 11.24 L12.8 10.94 L14.93 10.94 L17.07 8.82 L19.2 7.54 L21.33 7.11 L23.47 7.11 L25.6 5.16 L27.73 4.95 L29.87 4.07 L32 3.97 L34.13 2.77 L36.27 2.76 L38.4 5.81 L40.53 5.81 L42.67 5.72 L44.8 5.55 L46.93 5.32 L49.07 5.27 L51.2 4.99 L53.33 4.99 L55.47 0.64 L57.6 0.64 L59.73 0.58 L61.87 0.57 L64 0" fill="none" stroke="var(--cf-spark)" stroke-width="1.4" stroke-linecap="round" stroke-linejoin="round"/></svg></g></g><g transform="translate(428.40000000000003,46)"><text x="0" y="0" font-size="9" font-weight="600" fill="var(--cf-text-dim)" letter-spacing="0.8">LANGS</text><text x="0" y="28" font-size="22" font-weight="700" fill="var(--cf-text)">25</text><g transform="translate(0,40)"><svg width="64" height="14" viewBox="0 0 64 14" preserveAspectRatio="none"><path d="M0 14 L2.13 14 L4.27 14 L6.4 14 L8.53 14 L10.67 14 L12.8 14 L14.93 14 L17.07 14 L19.2 14 L21.33 14 L23.47 14 L25.6 14 L27.73 14 L29.87 14 L32 14 L34.13 14 L36.27 14 L38.4 14 L40.53 14 L42.67 14 L44.8 14 L46.93 14 L49.07 14 L51.2 14 L53.33 14 L55.47 0 L57.6 0 L59.73 0 L61.87 0 L64 0 L64 14 L0 14 Z" fill="var(--cf-spark-bg)" stroke="none"/><path d="M0 14 L2.13 14 L4.27 14 L6.4 14 L8.53 14 L10.67 14 L12.8 14 L14.93 14 L17.07 14 L19.2 14 L21.33 14 L23.47 14 L25.6 14 L27.73 14 L29.87 14 L32 14 L34.13 14 L36.27 14 L38.4 14 L40.53 14 L42.67 14 L44.8 14 L46.93 14 L49.07 14 L51.2 14 L53.33 14 L55.47 0 L57.6 0 L59.73 0 L61.87 0 L64 0" fill="none" stroke="var(--cf-spark)" stroke-width="1.4" stroke-linecap="round" stroke-linejoin="round"/></svg></g></g><g transform="translate(565.2,46)"><text x="0" y="0" font-size="9" font-weight="600" fill="var(--cf-text-dim)" letter-spacing="0.8">TESTS</text><text x="0" y="28" font-size="22" font-weight="700" fill="var(--cf-text)">220</text><g transform="translate(0,40)"><svg width="64" height="14" viewBox="0 0 64 14" preserveAspectRatio="none"><path d="M0 14 L2.13 14 L4.27 14 L6.4 14 L8.53 12.57 L10.67 11.71 L12.8 11.71 L14.93 11.71 L17.07 9.43 L19.2 8.29 L21.33 8.29 L23.47 8.29 L25.6 6.86 L27.73 6.57 L29.87 6 L32 6 L34.13 4.29 L36.27 4.29 L38.4 5.14 L40.53 5.14 L42.67 4.86 L44.8 4.86 L46.93 4.29 L49.07 4.29 L51.2 3.71 L53.33 3.71 L55.47 0.57 L57.6 0.57 L59.73 0.57 L61.87 0.57 L64 0 L64 14 L0 14 Z" fill="var(--cf-spark-bg)" stroke="none"/><path d="M0 14 L2.13 14 L4.27 14 L6.4 14 L8.53 12.57 L10.67 11.71 L12.8 11.71 L14.93 11.71 L17.07 9.43 L19.2 8.29 L21.33 8.29 L23.47 8.29 L25.6 6.86 L27.73 6.57 L29.87 6 L32 6 L34.13 4.29 L36.27 4.29 L38.4 5.14 L40.53 5.14 L42.67 4.86 L44.8 4.86 L46.93 4.29 L49.07 4.29 L51.2 3.71 L53.33 3.71 L55.47 0.57 L57.6 0.57 L59.73 0.57 L61.87 0.57 L64 0" fill="none" stroke="var(--cf-spark)" stroke-width="1.4" stroke-linecap="round" stroke-linejoin="round"/></svg></g></g><a href="https://github.com/braedonsaunders/codeflow" target="_blank"><text x="702" y="130" text-anchor="end" font-size="9" fill="var(--cf-text-faint)">powered by <tspan font-weight="600" fill="var(--cf-accent)">codeflow</tspan></text></a></svg>