<svg xmlns="http://www.w3.org/2000/svg" width="720" height="140" viewBox="0 0 720 140" font-family="-apple-system,BlinkMacSystemFont,Segoe UI,Helvetica,Arial,sans-serif"><style>svg{--cf-bg:#0d1117;--cf-bg-alt:#161b22;--cf-border:#21262d;--cf-text:#e6edf3;--cf-text-dim:#8b949e;--cf-text-faint:#6e7681;--cf-accent:#a78bfa;--cf-accent-soft:rgba(167,139,250,0.16);--cf-green:#3fb950;--cf-amber:#d29922;--cf-red:#f85149;--cf-spark:#a78bfa;--cf-spark-bg:rgba(167,139,250,0.18)}@media (prefers-color-scheme: light){svg{--cf-bg:#ffffff;--cf-bg-alt:#f6f8fa;--cf-border:#d0d7de;--cf-text:#1f2328;--cf-text-dim:#656d76;--cf-text-faint:#8c959f;--cf-accent:#6f42c1;--cf-accent-soft:rgba(111,66,193,0.12);--cf-green:#1a7f37;--cf-amber:#9a6700;--cf-red:#cf222e;--cf-spark:#6f42c1;--cf-spark-bg:rgba(111,66,193,0.12)}}</style><rect width="720" height="140" rx="12" fill="var(--cf-bg)" stroke="var(--cf-border)"/><text x="18" y="26" font-size="13" font-weight="600" fill="var(--cf-text)">braedonsaunders/bidwright</text><text x="702" y="26" text-anchor="end" font-size="10" fill="var(--cf-text-faint)" font-family="ui-monospace,SFMono-Regular,Menlo,monospace">@847a117</text><g transform="translate(18,46)"><text x="0" y="0" font-size="9" font-weight="600" fill="var(--cf-text-dim)" letter-spacing="0.8">FILES</text><text x="0" y="28" font-size="22" font-weight="700" fill="var(--cf-text)">929</text><g transform="translate(0,40)"><svg width="64" height="14" viewBox="0 0 64 14" preserveAspectRatio="none"><path d="M0 0 L2.21 14 L4.41 14 L6.62 14 L8.83 14 L11.03 14 L13.24 14 L15.45 14 L17.66 14 L19.86 14 L22.07 14 L24.28 14 L26.48 14 L28.69 14 L30.9 14 L33.1 14 L35.31 13.97 L37.52 13.97 L39.72 13.94 L41.93 13.91 L44.14 13.91 L46.34 13.91 L48.55 13.91 L50.76 13.91 L52.97 13.91 L55.17 13.91 L57.38 13.91 L59.59 13.87 L61.79 13.87 L64 13.87 L64 14 L0 14 Z" fill="var(--cf-spark-bg)" stroke="none"/><path d="M0 0 L2.21 14 L4.41 14 L6.62 14 L8.83 14 L11.03 14 L13.24 14 L15.45 14 L17.66 14 L19.86 14 L22.07 14 L24.28 14 L26.48 14 L28.69 14 L30.9 14 L33.1 14 L35.31 13.97 L37.52 13.97 L39.72 13.94 L41.93 13.91 L44.14 13.91 L46.34 13.91 L48.55 13.91 L50.76 13.91 L52.97 13.91 L55.17 13.91 L57.38 13.91 L59.59 13.87 L61.79 13.87 L64 13.87" fill="none" stroke="var(--cf-spark)" stroke-width="1.4" stroke-linecap="round" stroke-linejoin="round"/></svg></g></g><g transform="translate(154.8,46)"><text x="0" y="0" font-size="9" font-weight="600" fill="var(--cf-text-dim)" letter-spacing="0.8">FNS</text><text x="0" y="28" font-size="22" font-weight="700" fill="var(--cf-text)">4.1K</text><g transform="translate(0,40)"><svg width="64" height="14" viewBox="0 0 64 14" preserveAspectRatio="none"><path d="M0 14 L2.21 14 L4.41 14 L6.62 14 L8.83 14 L11.03 14 L13.24 14 L15.45 14 L17.66 14 L19.86 14 L22.07 14 L24.28 14 L26.48 13.43 L28.69 13.14 L30.9 13.14 L33.1 12.57 L35.31 10.57 L37.52 9.71 L39.72 8.29 L41.93 0.29 L44.14 0.29 L46.34 0.29 L48.55 1.14 L50.76 0.86 L52.97 0.86 L55.17 0.86 L57.38 0 L59.59 0.29 L61.79 0.29 L64 0 L64 14 L0 14 Z" fill="var(--cf-spark-bg)" stroke="none"/><path d="M0 14 L2.21 14 L4.41 14 L6.62 14 L8.83 14 L11.03 14 L13.24 14 L15.45 14 L17.66 14 L19.86 14 L22.07 14 L24.28 14 L26.48 13.43 L28.69 13.14 L30.9 13.14 L33.1 12.57 L35.31 10.57 L37.52 9.71 L39.72 8.29 L41.93 0.29 L44.14 0.29 L46.34 0.29 L48.55 1.14 L50.76 0.86 L52.97 0.86 L55.17 0.86 L57.38 0 L59.59 0.29 L61.79 0.29 L64 0" fill="none" stroke="var(--cf-spark)" stroke-width="1.4" stroke-linecap="round" stroke-linejoin="round"/></svg></g></g><g transform="translate(291.6,46)"><text x="0" y="0" font-size="9" font-weight="600" fill="var(--cf-text-dim)" letter-spacing="0.8">LOC</text><text x="0" y="28" font-size="22" font-weight="700" fill="var(--cf-text)">312.9K</text><g transform="translate(0,40)"><svg width="64" height="14" viewBox="0 0 64 14" preserveAspectRatio="none"><path d="M0 0 L2.21 14 L4.41 14 L6.62 14 L8.83 14 L11.03 14 L13.24 14 L15.45 14 L17.66 14 L19.86 14 L22.07 14 L24.28 14 L26.48 13.99 L28.69 13.99 L30.9 13.98 L33.1 13.98 L35.31 13.96 L37.52 13.94 L39.72 13.92 L41.93 13.85 L44.14 13.85 L46.34 13.85 L48.55 13.86 L50.76 13.86 L52.97 13.86 L55.17 13.85 L57.38 13.85 L59.59 13.84 L61.79 13.83 L64 13.82 L64 14 L0 14 Z" fill="var(--cf-spark-bg)" stroke="none"/><path d="M0 0 L2.21 14 L4.41 14 L6.62 14 L8.83 14 L11.03 14 L13.24 14 L15.45 14 L17.66 14 L19.86 14 L22.07 14 L24.28 14 L26.48 13.99 L28.69 13.99 L30.9 13.98 L33.1 13.98 L35.31 13.96 L37.52 13.94 L39.72 13.92 L41.93 13.85 L44.14 13.85 L46.34 13.85 L48.55 13.86 L50.76 13.86 L52.97 13.86 L55.17 13.85 L57.38 13.85 L59.59 13.84 L61.79 13.83 L64 13.82" fill="none" stroke="var(--cf-spark)" stroke-width="1.4" stroke-linecap="round" stroke-linejoin="round"/></svg></g></g><g transform="translate(428.40000000000003,46)"><text x="0" y="0" font-size="9" font-weight="600" fill="var(--cf-text-dim)" letter-spacing="0.8">LANGS</text><text x="0" y="28" font-size="22" font-weight="700" fill="var(--cf-text)">21</text><g transform="translate(0,40)"><svg width="64" height="14" viewBox="0 0 64 14" preserveAspectRatio="none"><path d="M0 0 L2.21 14 L4.41 14 L6.62 14 L8.83 14 L11.03 14 L13.24 14 L15.45 14 L17.66 14 L19.86 14 L22.07 14 L24.28 14 L26.48 14 L28.69 14 L30.9 14 L33.1 14 L35.31 14 L37.52 14 L39.72 14 L41.93 14 L44.14 14 L46.34 14 L48.55 14 L50.76 14 L52.97 14 L55.17 14 L57.38 14 L59.59 14 L61.79 14 L64 14 L64 14 L0 14 Z" fill="var(--cf-spark-bg)" stroke="none"/><path d="M0 0 L2.21 14 L4.41 14 L6.62 14 L8.83 14 L11.03 14 L13.24 14 L15.45 14 L17.66 14 L19.86 14 L22.07 14 L24.28 14 L26.48 14 L28.69 14 L30.9 14 L33.1 14 L35.31 14 L37.52 14 L39.72 14 L41.93 14 L44.14 14 L46.34 14 L48.55 14 L50.76 14 L52.97 14 L55.17 14 L57.38 14 L59.59 14 L61.79 14 L64 14" fill="none" stroke="var(--cf-spark)" stroke-width="1.4" stroke-linecap="round" stroke-linejoin="round"/></svg></g></g><g transform="translate(565.2,46)"><text x="0" y="0" font-size="9" font-weight="600" fill="var(--cf-text-dim)" letter-spacing="0.8">TESTS</text><text x="0" y="28" font-size="22" font-weight="700" fill="var(--cf-text)">78</text><g transform="translate(0,40)"><svg width="64" height="14" viewBox="0 0 64 14" preserveAspectRatio="none"><path d="M0 7 L2.21 7 L4.41 7 L6.62 7 L8.83 7 L11.03 7 L13.24 7 L15.45 7 L17.66 7 L19.86 7 L22.07 7 L24.28 7 L26.48 7 L28.69 7 L30.9 7 L33.1 7 L35.31 7 L37.52 7 L39.72 7 L41.93 7 L44.14 7 L46.34 7 L48.55 7 L50.76 7 L52.97 7 L55.17 7 L57.38 7 L59.59 7 L61.79 7 L64 7 L64 14 L0 14 Z" fill="var(--cf-spark-bg)" stroke="none"/><path d="M0 7 L2.21 7 L4.41 7 L6.62 7 L8.83 7 L11.03 7 L13.24 7 L15.45 7 L17.66 7 L19.86 7 L22.07 7 L24.28 7 L26.48 7 L28.69 7 L30.9 7 L33.1 7 L35.31 7 L37.52 7 L39.72 7 L41.93 7 L44.14 7 L46.34 7 L48.55 7 L50.76 7 L52.97 7 L55.17 7 L57.38 7 L59.59 7 L61.79 7 L64 7" fill="none" stroke="var(--cf-spark)" stroke-width="1.4" stroke-linecap="round" stroke-linejoin="round"/></svg></g></g><a href="https://github.com/braedonsaunders/codeflow" target="_blank"><text x="702" y="130" text-anchor="end" font-size="9" fill="var(--cf-text-faint)">powered by <tspan font-weight="600" fill="var(--cf-accent)">codeflow</tspan></text></a></svg>