<svg xmlns="http://www.w3.org/2000/svg" width="720" height="140" viewBox="0 0 720 140" font-family="-apple-system,BlinkMacSystemFont,Segoe UI,Helvetica,Arial,sans-serif"><style>svg{--cf-bg:#0d1117;--cf-bg-alt:#161b22;--cf-border:#21262d;--cf-text:#e6edf3;--cf-text-dim:#8b949e;--cf-text-faint:#6e7681;--cf-accent:#a78bfa;--cf-accent-soft:rgba(167,139,250,0.16);--cf-green:#3fb950;--cf-amber:#d29922;--cf-red:#f85149;--cf-spark:#a78bfa;--cf-spark-bg:rgba(167,139,250,0.18)}@media (prefers-color-scheme: light){svg{--cf-bg:#ffffff;--cf-bg-alt:#f6f8fa;--cf-border:#d0d7de;--cf-text:#1f2328;--cf-text-dim:#656d76;--cf-text-faint:#8c959f;--cf-accent:#6f42c1;--cf-accent-soft:rgba(111,66,193,0.12);--cf-green:#1a7f37;--cf-amber:#9a6700;--cf-red:#cf222e;--cf-spark:#6f42c1;--cf-spark-bg:rgba(111,66,193,0.12)}}</style><rect width="720" height="140" rx="12" fill="var(--cf-bg)" stroke="var(--cf-border)"/><text x="18" y="26" font-size="13" font-weight="600" fill="var(--cf-text)">braedonsaunders/bidwright</text><text x="702" y="26" text-anchor="end" font-size="10" fill="var(--cf-text-faint)" font-family="ui-monospace,SFMono-Regular,Menlo,monospace">@46eee73</text><g transform="translate(18,46)"><text x="0" y="0" font-size="9" font-weight="600" fill="var(--cf-text-dim)" letter-spacing="0.8">FILES</text><text x="0" y="28" font-size="22" font-weight="700" fill="var(--cf-text)">1.2K</text><g transform="translate(0,40)"><svg width="64" height="14" viewBox="0 0 64 14" preserveAspectRatio="none"><path d="M0 14 L2.13 12.89 L4.27 12.53 L6.4 12.53 L8.53 12.53 L10.67 12.53 L12.8 12.53 L14.93 12.53 L17.07 12.53 L19.2 12.53 L21.33 11.79 L23.47 10.32 L25.6 10.32 L27.73 9.21 L29.87 9.21 L32 8.47 L34.13 8.47 L36.27 8.47 L38.4 8.47 L40.53 2.58 L42.67 2.58 L44.8 2.58 L46.93 1.84 L49.07 1.84 L51.2 1.84 L53.33 1.84 L55.47 1.11 L57.6 1.11 L59.73 0.74 L61.87 0.37 L64 0 L64 14 L0 14 Z" fill="var(--cf-spark-bg)" stroke="none"/><path d="M0 14 L2.13 12.89 L4.27 12.53 L6.4 12.53 L8.53 12.53 L10.67 12.53 L12.8 12.53 L14.93 12.53 L17.07 12.53 L19.2 12.53 L21.33 11.79 L23.47 10.32 L25.6 10.32 L27.73 9.21 L29.87 9.21 L32 8.47 L34.13 8.47 L36.27 8.47 L38.4 8.47 L40.53 2.58 L42.67 2.58 L44.8 2.58 L46.93 1.84 L49.07 1.84 L51.2 1.84 L53.33 1.84 L55.47 1.11 L57.6 1.11 L59.73 0.74 L61.87 0.37 L64 0" fill="none" stroke="var(--cf-spark)" stroke-width="1.4" stroke-linecap="round" stroke-linejoin="round"/></svg></g></g><g transform="translate(154.8,46)"><text x="0" y="0" font-size="9" font-weight="600" fill="var(--cf-text-dim)" letter-spacing="0.8">FNS</text><text x="0" y="28" font-size="22" font-weight="700" fill="var(--cf-text)">7.5K</text><g transform="translate(0,40)"><svg width="64" height="14" viewBox="0 0 64 14" preserveAspectRatio="none"><path d="M0 14 L2.13 11.17 L4.27 10.94 L6.4 10.94 L8.53 10.94 L10.67 10.94 L12.8 10.94 L14.93 10.94 L17.07 10.94 L19.2 10.94 L21.33 10.88 L23.47 10.71 L25.6 9.52 L27.73 9.07 L29.87 8.9 L32 8.79 L34.13 8.79 L36.27 8.73 L38.4 8.73 L40.53 1.59 L42.67 1.13 L44.8 1.13 L46.93 0.62 L49.07 0.51 L51.2 0.51 L53.33 0.51 L55.47 0.34 L57.6 0.34 L59.73 0.23 L61.87 0.11 L64 0 L64 14 L0 14 Z" fill="var(--cf-spark-bg)" stroke="none"/><path d="M0 14 L2.13 11.17 L4.27 10.94 L6.4 10.94 L8.53 10.94 L10.67 10.94 L12.8 10.94 L14.93 10.94 L17.07 10.94 L19.2 10.94 L21.33 10.88 L23.47 10.71 L25.6 9.52 L27.73 9.07 L29.87 8.9 L32 8.79 L34.13 8.79 L36.27 8.73 L38.4 8.73 L40.53 1.59 L42.67 1.13 L44.8 1.13 L46.93 0.62 L49.07 0.51 L51.2 0.51 L53.33 0.51 L55.47 0.34 L57.6 0.34 L59.73 0.23 L61.87 0.11 L64 0" fill="none" stroke="var(--cf-spark)" stroke-width="1.4" stroke-linecap="round" stroke-linejoin="round"/></svg></g></g><g transform="translate(291.6,46)"><text x="0" y="0" font-size="9" font-weight="600" fill="var(--cf-text-dim)" letter-spacing="0.8">LOC</text><text x="0" y="28" font-size="22" font-weight="700" fill="var(--cf-text)">476.1K</text><g transform="translate(0,40)"><svg width="64" height="14" viewBox="0 0 64 14" preserveAspectRatio="none"><path d="M0 14 L2.13 10.85 L4.27 10.37 L6.4 10.22 L8.53 10.18 L10.67 10.15 L12.8 10.14 L14.93 10.13 L17.07 10.13 L19.2 10.13 L21.33 10.02 L23.47 9.75 L25.6 8.69 L27.73 8.27 L29.87 8.04 L32 7.74 L34.13 7.74 L36.27 7.68 L38.4 7.68 L40.53 1.67 L42.67 0.8 L44.8 0.8 L46.93 0.47 L49.07 0.45 L51.2 0.43 L53.33 0.45 L55.47 0.23 L57.6 0.23 L59.73 0.16 L61.87 0.1 L64 0 L64 14 L0 14 Z" fill="var(--cf-spark-bg)" stroke="none"/><path d="M0 14 L2.13 10.85 L4.27 10.37 L6.4 10.22 L8.53 10.18 L10.67 10.15 L12.8 10.14 L14.93 10.13 L17.07 10.13 L19.2 10.13 L21.33 10.02 L23.47 9.75 L25.6 8.69 L27.73 8.27 L29.87 8.04 L32 7.74 L34.13 7.74 L36.27 7.68 L38.4 7.68 L40.53 1.67 L42.67 0.8 L44.8 0.8 L46.93 0.47 L49.07 0.45 L51.2 0.43 L53.33 0.45 L55.47 0.23 L57.6 0.23 L59.73 0.16 L61.87 0.1 L64 0" fill="none" stroke="var(--cf-spark)" stroke-width="1.4" stroke-linecap="round" stroke-linejoin="round"/></svg></g></g><g transform="translate(428.40000000000003,46)"><text x="0" y="0" font-size="9" font-weight="600" fill="var(--cf-text-dim)" letter-spacing="0.8">LANGS</text><text x="0" y="28" font-size="22" font-weight="700" fill="var(--cf-text)">24</text><g transform="translate(0,40)"><svg width="64" height="14" viewBox="0 0 64 14" preserveAspectRatio="none"><path d="M0 7 L2.13 7 L4.27 7 L6.4 7 L8.53 7 L10.67 7 L12.8 7 L14.93 7 L17.07 7 L19.2 7 L21.33 7 L23.47 7 L25.6 7 L27.73 7 L29.87 7 L32 7 L34.13 7 L36.27 7 L38.4 7 L40.53 7 L42.67 7 L44.8 7 L46.93 7 L49.07 7 L51.2 7 L53.33 7 L55.47 7 L57.6 7 L59.73 7 L61.87 7 L64 7 L64 14 L0 14 Z" fill="var(--cf-spark-bg)" stroke="none"/><path d="M0 7 L2.13 7 L4.27 7 L6.4 7 L8.53 7 L10.67 7 L12.8 7 L14.93 7 L17.07 7 L19.2 7 L21.33 7 L23.47 7 L25.6 7 L27.73 7 L29.87 7 L32 7 L34.13 7 L36.27 7 L38.4 7 L40.53 7 L42.67 7 L44.8 7 L46.93 7 L49.07 7 L51.2 7 L53.33 7 L55.47 7 L57.6 7 L59.73 7 L61.87 7 L64 7" fill="none" stroke="var(--cf-spark)" stroke-width="1.4" stroke-linecap="round" stroke-linejoin="round"/></svg></g></g><g transform="translate(565.2,46)"><text x="0" y="0" font-size="9" font-weight="600" fill="var(--cf-text-dim)" letter-spacing="0.8">TESTS</text><text x="0" y="28" font-size="22" font-weight="700" fill="var(--cf-text)">147</text><g transform="translate(0,40)"><svg width="64" height="14" viewBox="0 0 64 14" preserveAspectRatio="none"><path d="M0 14 L2.13 13.18 L4.27 12.35 L6.4 12.35 L8.53 12.35 L10.67 12.35 L12.8 12.35 L14.93 12.35 L17.07 12.35 L19.2 12.35 L21.33 11.53 L23.47 9.88 L25.6 9.88 L27.73 8.24 L29.87 8.24 L32 7.41 L34.13 7.41 L36.27 7.41 L38.4 7.41 L40.53 4.94 L42.67 4.94 L44.8 4.94 L46.93 4.12 L49.07 4.12 L51.2 4.12 L53.33 4.12 L55.47 2.47 L57.6 2.47 L59.73 1.65 L61.87 0.82 L64 0 L64 14 L0 14 Z" fill="var(--cf-spark-bg)" stroke="none"/><path d="M0 14 L2.13 13.18 L4.27 12.35 L6.4 12.35 L8.53 12.35 L10.67 12.35 L12.8 12.35 L14.93 12.35 L17.07 12.35 L19.2 12.35 L21.33 11.53 L23.47 9.88 L25.6 9.88 L27.73 8.24 L29.87 8.24 L32 7.41 L34.13 7.41 L36.27 7.41 L38.4 7.41 L40.53 4.94 L42.67 4.94 L44.8 4.94 L46.93 4.12 L49.07 4.12 L51.2 4.12 L53.33 4.12 L55.47 2.47 L57.6 2.47 L59.73 1.65 L61.87 0.82 L64 0" fill="none" stroke="var(--cf-spark)" stroke-width="1.4" stroke-linecap="round" stroke-linejoin="round"/></svg></g></g><a href="https://github.com/braedonsaunders/codeflow" target="_blank"><text x="702" y="130" text-anchor="end" font-size="9" fill="var(--cf-text-faint)">powered by <tspan font-weight="600" fill="var(--cf-accent)">codeflow</tspan></text></a></svg>