<svg xmlns="http://www.w3.org/2000/svg" width="720" height="140" viewBox="0 0 720 140" font-family="-apple-system,BlinkMacSystemFont,Segoe UI,Helvetica,Arial,sans-serif"><style>svg{--cf-bg:#0d1117;--cf-bg-alt:#161b22;--cf-border:#21262d;--cf-text:#e6edf3;--cf-text-dim:#8b949e;--cf-text-faint:#6e7681;--cf-accent:#a78bfa;--cf-accent-soft:rgba(167,139,250,0.16);--cf-green:#3fb950;--cf-amber:#d29922;--cf-red:#f85149;--cf-spark:#a78bfa;--cf-spark-bg:rgba(167,139,250,0.18)}@media (prefers-color-scheme: light){svg{--cf-bg:#ffffff;--cf-bg-alt:#f6f8fa;--cf-border:#d0d7de;--cf-text:#1f2328;--cf-text-dim:#656d76;--cf-text-faint:#8c959f;--cf-accent:#6f42c1;--cf-accent-soft:rgba(111,66,193,0.12);--cf-green:#1a7f37;--cf-amber:#9a6700;--cf-red:#cf222e;--cf-spark:#6f42c1;--cf-spark-bg:rgba(111,66,193,0.12)}}</style><rect width="720" height="140" rx="12" fill="var(--cf-bg)" stroke="var(--cf-border)"/><text x="18" y="26" font-size="13" font-weight="600" fill="var(--cf-text)">braedonsaunders/bidwright</text><text x="702" y="26" text-anchor="end" font-size="10" fill="var(--cf-text-faint)" font-family="ui-monospace,SFMono-Regular,Menlo,monospace">@4f81802</text><g transform="translate(18,46)"><text x="0" y="0" font-size="9" font-weight="600" fill="var(--cf-text-dim)" letter-spacing="0.8">FILES</text><text x="0" y="28" font-size="22" font-weight="700" fill="var(--cf-text)">1K</text><g transform="translate(0,40)"><svg width="64" height="14" viewBox="0 0 64 14" preserveAspectRatio="none"><path d="M0 14 L2.13 13.87 L4.27 13.87 L6.4 13.87 L8.53 13.36 L10.67 13.36 L12.8 13.36 L14.93 13.11 L17.07 13.11 L19.2 13.11 L21.33 13.11 L23.47 13.11 L25.6 7.89 L27.73 7.76 L29.87 7.76 L32 6.75 L34.13 6.75 L36.27 6.75 L38.4 6.75 L40.53 6.75 L42.67 6.75 L44.8 6.75 L46.93 6.62 L49.07 6.62 L51.2 6.62 L53.33 6.62 L55.47 0.25 L57.6 0.25 L59.73 0.13 L61.87 0 L64 0 L64 14 L0 14 Z" fill="var(--cf-spark-bg)" stroke="none"/><path d="M0 14 L2.13 13.87 L4.27 13.87 L6.4 13.87 L8.53 13.36 L10.67 13.36 L12.8 13.36 L14.93 13.11 L17.07 13.11 L19.2 13.11 L21.33 13.11 L23.47 13.11 L25.6 7.89 L27.73 7.76 L29.87 7.76 L32 6.75 L34.13 6.75 L36.27 6.75 L38.4 6.75 L40.53 6.75 L42.67 6.75 L44.8 6.75 L46.93 6.62 L49.07 6.62 L51.2 6.62 L53.33 6.62 L55.47 0.25 L57.6 0.25 L59.73 0.13 L61.87 0 L64 0" fill="none" stroke="var(--cf-spark)" stroke-width="1.4" stroke-linecap="round" stroke-linejoin="round"/></svg></g></g><g transform="translate(154.8,46)"><text x="0" y="0" font-size="9" font-weight="600" fill="var(--cf-text-dim)" letter-spacing="0.8">FNS</text><text x="0" y="28" font-size="22" font-weight="700" fill="var(--cf-text)">5.6K</text><g transform="translate(0,40)"><svg width="64" height="14" viewBox="0 0 64 14" preserveAspectRatio="none"><path d="M0 13.99 L2.13 13.99 L4.27 13.99 L6.4 14 L8.53 14 L10.67 14 L12.8 14 L14.93 14 L17.07 14 L19.2 14 L21.33 14 L23.47 14 L25.6 12.6 L27.73 12.52 L29.87 12.52 L32 12.13 L34.13 12.13 L36.27 12.13 L38.4 12.11 L40.53 12.11 L42.67 12.11 L44.8 12.11 L46.93 12.11 L49.07 12.11 L51.2 12.11 L53.33 12.11 L55.47 0.05 L57.6 0.05 L59.73 0.05 L61.87 0.05 L64 0 L64 14 L0 14 Z" fill="var(--cf-spark-bg)" stroke="none"/><path d="M0 13.99 L2.13 13.99 L4.27 13.99 L6.4 14 L8.53 14 L10.67 14 L12.8 14 L14.93 14 L17.07 14 L19.2 14 L21.33 14 L23.47 14 L25.6 12.6 L27.73 12.52 L29.87 12.52 L32 12.13 L34.13 12.13 L36.27 12.13 L38.4 12.11 L40.53 12.11 L42.67 12.11 L44.8 12.11 L46.93 12.11 L49.07 12.11 L51.2 12.11 L53.33 12.11 L55.47 0.05 L57.6 0.05 L59.73 0.05 L61.87 0.05 L64 0" fill="none" stroke="var(--cf-spark)" stroke-width="1.4" stroke-linecap="round" stroke-linejoin="round"/></svg></g></g><g transform="translate(291.6,46)"><text x="0" y="0" font-size="9" font-weight="600" fill="var(--cf-text-dim)" letter-spacing="0.8">LOC</text><text x="0" y="28" font-size="22" font-weight="700" fill="var(--cf-text)">369.8K</text><g transform="translate(0,40)"><svg width="64" height="14" viewBox="0 0 64 14" preserveAspectRatio="none"><path d="M0 13.96 L2.13 13.96 L4.27 14 L6.4 13.98 L8.53 13.87 L10.67 13.86 L12.8 13.86 L14.93 13.83 L17.07 13.78 L19.2 13.79 L21.33 13.78 L23.47 13.78 L25.6 11.87 L27.73 11.81 L29.87 11.81 L32 11.43 L34.13 11.43 L36.27 11.43 L38.4 11.41 L40.53 11.41 L42.67 11.41 L44.8 11.41 L46.93 11.39 L49.07 11.42 L51.2 11.42 L53.33 11.38 L55.47 0.14 L57.6 0.15 L59.73 0.1 L61.87 0.09 L64 0 L64 14 L0 14 Z" fill="var(--cf-spark-bg)" stroke="none"/><path d="M0 13.96 L2.13 13.96 L4.27 14 L6.4 13.98 L8.53 13.87 L10.67 13.86 L12.8 13.86 L14.93 13.83 L17.07 13.78 L19.2 13.79 L21.33 13.78 L23.47 13.78 L25.6 11.87 L27.73 11.81 L29.87 11.81 L32 11.43 L34.13 11.43 L36.27 11.43 L38.4 11.41 L40.53 11.41 L42.67 11.41 L44.8 11.41 L46.93 11.39 L49.07 11.42 L51.2 11.42 L53.33 11.38 L55.47 0.14 L57.6 0.15 L59.73 0.1 L61.87 0.09 L64 0" fill="none" stroke="var(--cf-spark)" stroke-width="1.4" stroke-linecap="round" stroke-linejoin="round"/></svg></g></g><g transform="translate(428.40000000000003,46)"><text x="0" y="0" font-size="9" font-weight="600" fill="var(--cf-text-dim)" letter-spacing="0.8">LANGS</text><text x="0" y="28" font-size="22" font-weight="700" fill="var(--cf-text)">21</text><g transform="translate(0,40)"><svg width="64" height="14" viewBox="0 0 64 14" preserveAspectRatio="none"><path d="M0 7 L2.13 7 L4.27 7 L6.4 7 L8.53 7 L10.67 7 L12.8 7 L14.93 7 L17.07 7 L19.2 7 L21.33 7 L23.47 7 L25.6 7 L27.73 7 L29.87 7 L32 7 L34.13 7 L36.27 7 L38.4 7 L40.53 7 L42.67 7 L44.8 7 L46.93 7 L49.07 7 L51.2 7 L53.33 7 L55.47 7 L57.6 7 L59.73 7 L61.87 7 L64 7 L64 14 L0 14 Z" fill="var(--cf-spark-bg)" stroke="none"/><path d="M0 7 L2.13 7 L4.27 7 L6.4 7 L8.53 7 L10.67 7 L12.8 7 L14.93 7 L17.07 7 L19.2 7 L21.33 7 L23.47 7 L25.6 7 L27.73 7 L29.87 7 L32 7 L34.13 7 L36.27 7 L38.4 7 L40.53 7 L42.67 7 L44.8 7 L46.93 7 L49.07 7 L51.2 7 L53.33 7 L55.47 7 L57.6 7 L59.73 7 L61.87 7 L64 7" fill="none" stroke="var(--cf-spark)" stroke-width="1.4" stroke-linecap="round" stroke-linejoin="round"/></svg></g></g><g transform="translate(565.2,46)"><text x="0" y="0" font-size="9" font-weight="600" fill="var(--cf-text-dim)" letter-spacing="0.8">TESTS</text><text x="0" y="28" font-size="22" font-weight="700" fill="var(--cf-text)">94</text><g transform="translate(0,40)"><svg width="64" height="14" viewBox="0 0 64 14" preserveAspectRatio="none"><path d="M0 14 L2.13 13.07 L4.27 13.07 L6.4 13.07 L8.53 13.07 L10.67 13.07 L12.8 13.07 L14.93 13.07 L17.07 13.07 L19.2 13.07 L21.33 13.07 L23.47 13.07 L25.6 13.07 L27.73 13.07 L29.87 13.07 L32 13.07 L34.13 13.07 L36.27 13.07 L38.4 13.07 L40.53 13.07 L42.67 13.07 L44.8 13.07 L46.93 13.07 L49.07 13.07 L51.2 13.07 L53.33 13.07 L55.47 0 L57.6 0 L59.73 0 L61.87 0 L64 0 L64 14 L0 14 Z" fill="var(--cf-spark-bg)" stroke="none"/><path d="M0 14 L2.13 13.07 L4.27 13.07 L6.4 13.07 L8.53 13.07 L10.67 13.07 L12.8 13.07 L14.93 13.07 L17.07 13.07 L19.2 13.07 L21.33 13.07 L23.47 13.07 L25.6 13.07 L27.73 13.07 L29.87 13.07 L32 13.07 L34.13 13.07 L36.27 13.07 L38.4 13.07 L40.53 13.07 L42.67 13.07 L44.8 13.07 L46.93 13.07 L49.07 13.07 L51.2 13.07 L53.33 13.07 L55.47 0 L57.6 0 L59.73 0 L61.87 0 L64 0" fill="none" stroke="var(--cf-spark)" stroke-width="1.4" stroke-linecap="round" stroke-linejoin="round"/></svg></g></g><a href="https://github.com/braedonsaunders/codeflow" target="_blank"><text x="702" y="130" text-anchor="end" font-size="9" fill="var(--cf-text-faint)">powered by <tspan font-weight="600" fill="var(--cf-accent)">codeflow</tspan></text></a></svg>