<svg xmlns="http://www.w3.org/2000/svg" width="720" height="140" viewBox="0 0 720 140" font-family="-apple-system,BlinkMacSystemFont,Segoe UI,Helvetica,Arial,sans-serif"><style>svg{--cf-bg:#0d1117;--cf-bg-alt:#161b22;--cf-border:#21262d;--cf-text:#e6edf3;--cf-text-dim:#8b949e;--cf-text-faint:#6e7681;--cf-accent:#a78bfa;--cf-accent-soft:rgba(167,139,250,0.16);--cf-green:#3fb950;--cf-amber:#d29922;--cf-red:#f85149;--cf-spark:#a78bfa;--cf-spark-bg:rgba(167,139,250,0.18)}@media (prefers-color-scheme: light){svg{--cf-bg:#ffffff;--cf-bg-alt:#f6f8fa;--cf-border:#d0d7de;--cf-text:#1f2328;--cf-text-dim:#656d76;--cf-text-faint:#8c959f;--cf-accent:#6f42c1;--cf-accent-soft:rgba(111,66,193,0.12);--cf-green:#1a7f37;--cf-amber:#9a6700;--cf-red:#cf222e;--cf-spark:#6f42c1;--cf-spark-bg:rgba(111,66,193,0.12)}}</style><rect width="720" height="140" rx="12" fill="var(--cf-bg)" stroke="var(--cf-border)"/><text x="18" y="26" font-size="13" font-weight="600" fill="var(--cf-text)">braedonsaunders/bidwright</text><text x="702" y="26" text-anchor="end" font-size="10" fill="var(--cf-text-faint)" font-family="ui-monospace,SFMono-Regular,Menlo,monospace">@b2ba504</text><g transform="translate(18,46)"><text x="0" y="0" font-size="9" font-weight="600" fill="var(--cf-text-dim)" letter-spacing="0.8">FILES</text><text x="0" y="28" font-size="22" font-weight="700" fill="var(--cf-text)">1.1K</text><g transform="translate(0,40)"><svg width="64" height="14" viewBox="0 0 64 14" preserveAspectRatio="none"><path d="M0 14 L2.13 14 L4.27 9.3 L6.4 9.18 L8.53 9.18 L10.67 8.26 L12.8 8.26 L14.93 8.26 L17.07 8.26 L19.2 8.26 L21.33 8.26 L23.47 8.26 L25.6 8.15 L27.73 8.15 L29.87 8.15 L32 8.15 L34.13 2.41 L36.27 2.41 L38.4 2.3 L40.53 2.18 L42.67 2.18 L44.8 2.18 L46.93 2.18 L49.07 2.18 L51.2 2.41 L53.33 2.41 L55.47 2.41 L57.6 1.72 L59.73 0.11 L61.87 0 L64 0 L64 14 L0 14 Z" fill="var(--cf-spark-bg)" stroke="none"/><path d="M0 14 L2.13 14 L4.27 9.3 L6.4 9.18 L8.53 9.18 L10.67 8.26 L12.8 8.26 L14.93 8.26 L17.07 8.26 L19.2 8.26 L21.33 8.26 L23.47 8.26 L25.6 8.15 L27.73 8.15 L29.87 8.15 L32 8.15 L34.13 2.41 L36.27 2.41 L38.4 2.3 L40.53 2.18 L42.67 2.18 L44.8 2.18 L46.93 2.18 L49.07 2.18 L51.2 2.41 L53.33 2.41 L55.47 2.41 L57.6 1.72 L59.73 0.11 L61.87 0 L64 0" fill="none" stroke="var(--cf-spark)" stroke-width="1.4" stroke-linecap="round" stroke-linejoin="round"/></svg></g></g><g transform="translate(154.8,46)"><text x="0" y="0" font-size="9" font-weight="600" fill="var(--cf-text-dim)" letter-spacing="0.8">FNS</text><text x="0" y="28" font-size="22" font-weight="700" fill="var(--cf-text)">5.8K</text><g transform="translate(0,40)"><svg width="64" height="14" viewBox="0 0 64 14" preserveAspectRatio="none"><path d="M0 14 L2.13 14 L4.27 12.8 L6.4 12.73 L8.53 12.73 L10.67 12.39 L12.8 12.39 L14.93 12.39 L17.07 12.38 L19.2 12.38 L21.33 12.38 L23.47 12.38 L25.6 12.38 L27.73 12.38 L29.87 12.38 L32 12.38 L34.13 2 L36.27 2 L38.4 2 L40.53 2 L42.67 1.96 L44.8 1.96 L46.93 1.95 L49.07 1.94 L51.2 2.36 L53.33 2.31 L55.47 2.3 L57.6 0.53 L59.73 0.1 L61.87 0.03 L64 0 L64 14 L0 14 Z" fill="var(--cf-spark-bg)" stroke="none"/><path d="M0 14 L2.13 14 L4.27 12.8 L6.4 12.73 L8.53 12.73 L10.67 12.39 L12.8 12.39 L14.93 12.39 L17.07 12.38 L19.2 12.38 L21.33 12.38 L23.47 12.38 L25.6 12.38 L27.73 12.38 L29.87 12.38 L32 12.38 L34.13 2 L36.27 2 L38.4 2 L40.53 2 L42.67 1.96 L44.8 1.96 L46.93 1.95 L49.07 1.94 L51.2 2.36 L53.33 2.31 L55.47 2.3 L57.6 0.53 L59.73 0.1 L61.87 0.03 L64 0" fill="none" stroke="var(--cf-spark)" stroke-width="1.4" stroke-linecap="round" stroke-linejoin="round"/></svg></g></g><g transform="translate(291.6,46)"><text x="0" y="0" font-size="9" font-weight="600" fill="var(--cf-text-dim)" letter-spacing="0.8">LOC</text><text x="0" y="28" font-size="22" font-weight="700" fill="var(--cf-text)">388.6K</text><g transform="translate(0,40)"><svg width="64" height="14" viewBox="0 0 64 14" preserveAspectRatio="none"><path d="M0 14 L2.13 14 L4.27 12.54 L6.4 12.5 L8.53 12.5 L10.67 12.21 L12.8 12.21 L14.93 12.21 L17.07 12.2 L19.2 12.2 L21.33 12.2 L23.47 12.2 L25.6 12.18 L27.73 12.2 L29.87 12.2 L32 12.18 L34.13 3.64 L36.27 3.64 L38.4 3.61 L40.53 3.6 L42.67 3.53 L44.8 3.53 L46.93 3.52 L49.07 3.52 L51.2 4.04 L53.33 4.09 L55.47 4.05 L57.6 2.06 L59.73 0.16 L61.87 0.03 L64 0 L64 14 L0 14 Z" fill="var(--cf-spark-bg)" stroke="none"/><path d="M0 14 L2.13 14 L4.27 12.54 L6.4 12.5 L8.53 12.5 L10.67 12.21 L12.8 12.21 L14.93 12.21 L17.07 12.2 L19.2 12.2 L21.33 12.2 L23.47 12.2 L25.6 12.18 L27.73 12.2 L29.87 12.2 L32 12.18 L34.13 3.64 L36.27 3.64 L38.4 3.61 L40.53 3.6 L42.67 3.53 L44.8 3.53 L46.93 3.52 L49.07 3.52 L51.2 4.04 L53.33 4.09 L55.47 4.05 L57.6 2.06 L59.73 0.16 L61.87 0.03 L64 0" fill="none" stroke="var(--cf-spark)" stroke-width="1.4" stroke-linecap="round" stroke-linejoin="round"/></svg></g></g><g transform="translate(428.40000000000003,46)"><text x="0" y="0" font-size="9" font-weight="600" fill="var(--cf-text-dim)" letter-spacing="0.8">LANGS</text><text x="0" y="28" font-size="22" font-weight="700" fill="var(--cf-text)">21</text><g transform="translate(0,40)"><svg width="64" height="14" viewBox="0 0 64 14" preserveAspectRatio="none"><path d="M0 7 L2.13 7 L4.27 7 L6.4 7 L8.53 7 L10.67 7 L12.8 7 L14.93 7 L17.07 7 L19.2 7 L21.33 7 L23.47 7 L25.6 7 L27.73 7 L29.87 7 L32 7 L34.13 7 L36.27 7 L38.4 7 L40.53 7 L42.67 7 L44.8 7 L46.93 7 L49.07 7 L51.2 7 L53.33 7 L55.47 7 L57.6 7 L59.73 7 L61.87 7 L64 7 L64 14 L0 14 Z" fill="var(--cf-spark-bg)" stroke="none"/><path d="M0 7 L2.13 7 L4.27 7 L6.4 7 L8.53 7 L10.67 7 L12.8 7 L14.93 7 L17.07 7 L19.2 7 L21.33 7 L23.47 7 L25.6 7 L27.73 7 L29.87 7 L32 7 L34.13 7 L36.27 7 L38.4 7 L40.53 7 L42.67 7 L44.8 7 L46.93 7 L49.07 7 L51.2 7 L53.33 7 L55.47 7 L57.6 7 L59.73 7 L61.87 7 L64 7" fill="none" stroke="var(--cf-spark)" stroke-width="1.4" stroke-linecap="round" stroke-linejoin="round"/></svg></g></g><g transform="translate(565.2,46)"><text x="0" y="0" font-size="9" font-weight="600" fill="var(--cf-text-dim)" letter-spacing="0.8">TESTS</text><text x="0" y="28" font-size="22" font-weight="700" fill="var(--cf-text)">95</text><g transform="translate(0,40)"><svg width="64" height="14" viewBox="0 0 64 14" preserveAspectRatio="none"><path d="M0 14 L2.13 14 L4.27 14 L6.4 14 L8.53 14 L10.67 14 L12.8 14 L14.93 14 L17.07 14 L19.2 14 L21.33 14 L23.47 14 L25.6 14 L27.73 14 L29.87 14 L32 14 L34.13 0.93 L36.27 0.93 L38.4 0.93 L40.53 0.93 L42.67 0.93 L44.8 0.93 L46.93 0.93 L49.07 0.93 L51.2 0.93 L53.33 0.93 L55.47 0.93 L57.6 0 L59.73 0 L61.87 0 L64 0 L64 14 L0 14 Z" fill="var(--cf-spark-bg)" stroke="none"/><path d="M0 14 L2.13 14 L4.27 14 L6.4 14 L8.53 14 L10.67 14 L12.8 14 L14.93 14 L17.07 14 L19.2 14 L21.33 14 L23.47 14 L25.6 14 L27.73 14 L29.87 14 L32 14 L34.13 0.93 L36.27 0.93 L38.4 0.93 L40.53 0.93 L42.67 0.93 L44.8 0.93 L46.93 0.93 L49.07 0.93 L51.2 0.93 L53.33 0.93 L55.47 0.93 L57.6 0 L59.73 0 L61.87 0 L64 0" fill="none" stroke="var(--cf-spark)" stroke-width="1.4" stroke-linecap="round" stroke-linejoin="round"/></svg></g></g><a href="https://github.com/braedonsaunders/codeflow" target="_blank"><text x="702" y="130" text-anchor="end" font-size="9" fill="var(--cf-text-faint)">powered by <tspan font-weight="600" fill="var(--cf-accent)">codeflow</tspan></text></a></svg>