<svg xmlns="http://www.w3.org/2000/svg" width="720" height="140" viewBox="0 0 720 140" font-family="-apple-system,BlinkMacSystemFont,Segoe UI,Helvetica,Arial,sans-serif"><style>svg{--cf-bg:#0d1117;--cf-bg-alt:#161b22;--cf-border:#21262d;--cf-text:#e6edf3;--cf-text-dim:#8b949e;--cf-text-faint:#6e7681;--cf-accent:#a78bfa;--cf-accent-soft:rgba(167,139,250,0.16);--cf-green:#3fb950;--cf-amber:#d29922;--cf-red:#f85149;--cf-spark:#a78bfa;--cf-spark-bg:rgba(167,139,250,0.18)}@media (prefers-color-scheme: light){svg{--cf-bg:#ffffff;--cf-bg-alt:#f6f8fa;--cf-border:#d0d7de;--cf-text:#1f2328;--cf-text-dim:#656d76;--cf-text-faint:#8c959f;--cf-accent:#6f42c1;--cf-accent-soft:rgba(111,66,193,0.12);--cf-green:#1a7f37;--cf-amber:#9a6700;--cf-red:#cf222e;--cf-spark:#6f42c1;--cf-spark-bg:rgba(111,66,193,0.12)}}</style><rect width="720" height="140" rx="12" fill="var(--cf-bg)" stroke="var(--cf-border)"/><text x="18" y="26" font-size="13" font-weight="600" fill="var(--cf-text)">braedonsaunders/bidwright</text><text x="702" y="26" text-anchor="end" font-size="10" fill="var(--cf-text-faint)" font-family="ui-monospace,SFMono-Regular,Menlo,monospace">@99f101f</text><g transform="translate(18,46)"><text x="0" y="0" font-size="9" font-weight="600" fill="var(--cf-text-dim)" letter-spacing="0.8">FILES</text><text x="0" y="28" font-size="22" font-weight="700" fill="var(--cf-text)">1.1K</text><g transform="translate(0,40)"><svg width="64" height="14" viewBox="0 0 64 14" preserveAspectRatio="none"><path d="M0 14 L2.13 12.6 L4.27 12.6 L6.4 12.6 L8.53 12.6 L10.67 12.6 L12.8 12.6 L14.93 12.6 L17.07 12.43 L19.2 12.43 L21.33 12.43 L23.47 12.43 L25.6 3.67 L27.73 3.67 L29.87 3.5 L32 3.33 L34.13 3.33 L36.27 3.33 L38.4 3.33 L40.53 3.33 L42.67 3.67 L44.8 3.67 L46.93 3.67 L49.07 2.63 L51.2 0.17 L53.33 0 L55.47 0 L57.6 0 L59.73 0 L61.87 0 L64 0 L64 14 L0 14 Z" fill="var(--cf-spark-bg)" stroke="none"/><path d="M0 14 L2.13 12.6 L4.27 12.6 L6.4 12.6 L8.53 12.6 L10.67 12.6 L12.8 12.6 L14.93 12.6 L17.07 12.43 L19.2 12.43 L21.33 12.43 L23.47 12.43 L25.6 3.67 L27.73 3.67 L29.87 3.5 L32 3.33 L34.13 3.33 L36.27 3.33 L38.4 3.33 L40.53 3.33 L42.67 3.67 L44.8 3.67 L46.93 3.67 L49.07 2.63 L51.2 0.17 L53.33 0 L55.47 0 L57.6 0 L59.73 0 L61.87 0 L64 0" fill="none" stroke="var(--cf-spark)" stroke-width="1.4" stroke-linecap="round" stroke-linejoin="round"/></svg></g></g><g transform="translate(154.8,46)"><text x="0" y="0" font-size="9" font-weight="600" fill="var(--cf-text-dim)" letter-spacing="0.8">FNS</text><text x="0" y="28" font-size="22" font-weight="700" fill="var(--cf-text)">5.8K</text><g transform="translate(0,40)"><svg width="64" height="14" viewBox="0 0 64 14" preserveAspectRatio="none"><path d="M0 14 L2.13 13.64 L4.27 13.64 L6.4 13.64 L8.53 13.62 L10.67 13.62 L12.8 13.62 L14.93 13.62 L17.07 13.62 L19.2 13.62 L21.33 13.62 L23.47 13.62 L25.6 2.3 L27.73 2.3 L29.87 2.3 L32 2.3 L34.13 2.25 L36.27 2.25 L38.4 2.24 L40.53 2.23 L42.67 2.69 L44.8 2.64 L46.93 2.63 L49.07 0.69 L51.2 0.23 L53.33 0.15 L55.47 0.12 L57.6 0.12 L59.73 0.12 L61.87 0.03 L64 0 L64 14 L0 14 Z" fill="var(--cf-spark-bg)" stroke="none"/><path d="M0 14 L2.13 13.64 L4.27 13.64 L6.4 13.64 L8.53 13.62 L10.67 13.62 L12.8 13.62 L14.93 13.62 L17.07 13.62 L19.2 13.62 L21.33 13.62 L23.47 13.62 L25.6 2.3 L27.73 2.3 L29.87 2.3 L32 2.3 L34.13 2.25 L36.27 2.25 L38.4 2.24 L40.53 2.23 L42.67 2.69 L44.8 2.64 L46.93 2.63 L49.07 0.69 L51.2 0.23 L53.33 0.15 L55.47 0.12 L57.6 0.12 L59.73 0.12 L61.87 0.03 L64 0" fill="none" stroke="var(--cf-spark)" stroke-width="1.4" stroke-linecap="round" stroke-linejoin="round"/></svg></g></g><g transform="translate(291.6,46)"><text x="0" y="0" font-size="9" font-weight="600" fill="var(--cf-text-dim)" letter-spacing="0.8">LOC</text><text x="0" y="28" font-size="22" font-weight="700" fill="var(--cf-text)">389.6K</text><g transform="translate(0,40)"><svg width="64" height="14" viewBox="0 0 64 14" preserveAspectRatio="none"><path d="M0 14 L2.13 13.68 L4.27 13.68 L6.4 13.68 L8.53 13.66 L10.67 13.66 L12.8 13.66 L14.93 13.66 L17.07 13.65 L19.2 13.67 L21.33 13.67 L23.47 13.64 L25.6 4.22 L27.73 4.22 L29.87 4.19 L32 4.18 L34.13 4.1 L36.27 4.1 L38.4 4.09 L40.53 4.09 L42.67 4.67 L44.8 4.72 L46.93 4.68 L49.07 2.48 L51.2 0.38 L53.33 0.24 L55.47 0.21 L57.6 0.18 L59.73 0.18 L61.87 0.05 L64 0 L64 14 L0 14 Z" fill="var(--cf-spark-bg)" stroke="none"/><path d="M0 14 L2.13 13.68 L4.27 13.68 L6.4 13.68 L8.53 13.66 L10.67 13.66 L12.8 13.66 L14.93 13.66 L17.07 13.65 L19.2 13.67 L21.33 13.67 L23.47 13.64 L25.6 4.22 L27.73 4.22 L29.87 4.19 L32 4.18 L34.13 4.1 L36.27 4.1 L38.4 4.09 L40.53 4.09 L42.67 4.67 L44.8 4.72 L46.93 4.68 L49.07 2.48 L51.2 0.38 L53.33 0.24 L55.47 0.21 L57.6 0.18 L59.73 0.18 L61.87 0.05 L64 0" fill="none" stroke="var(--cf-spark)" stroke-width="1.4" stroke-linecap="round" stroke-linejoin="round"/></svg></g></g><g transform="translate(428.40000000000003,46)"><text x="0" y="0" font-size="9" font-weight="600" fill="var(--cf-text-dim)" letter-spacing="0.8">LANGS</text><text x="0" y="28" font-size="22" font-weight="700" fill="var(--cf-text)">21</text><g transform="translate(0,40)"><svg width="64" height="14" viewBox="0 0 64 14" preserveAspectRatio="none"><path d="M0 7 L2.13 7 L4.27 7 L6.4 7 L8.53 7 L10.67 7 L12.8 7 L14.93 7 L17.07 7 L19.2 7 L21.33 7 L23.47 7 L25.6 7 L27.73 7 L29.87 7 L32 7 L34.13 7 L36.27 7 L38.4 7 L40.53 7 L42.67 7 L44.8 7 L46.93 7 L49.07 7 L51.2 7 L53.33 7 L55.47 7 L57.6 7 L59.73 7 L61.87 7 L64 7 L64 14 L0 14 Z" fill="var(--cf-spark-bg)" stroke="none"/><path d="M0 7 L2.13 7 L4.27 7 L6.4 7 L8.53 7 L10.67 7 L12.8 7 L14.93 7 L17.07 7 L19.2 7 L21.33 7 L23.47 7 L25.6 7 L27.73 7 L29.87 7 L32 7 L34.13 7 L36.27 7 L38.4 7 L40.53 7 L42.67 7 L44.8 7 L46.93 7 L49.07 7 L51.2 7 L53.33 7 L55.47 7 L57.6 7 L59.73 7 L61.87 7 L64 7" fill="none" stroke="var(--cf-spark)" stroke-width="1.4" stroke-linecap="round" stroke-linejoin="round"/></svg></g></g><g transform="translate(565.2,46)"><text x="0" y="0" font-size="9" font-weight="600" fill="var(--cf-text-dim)" letter-spacing="0.8">TESTS</text><text x="0" y="28" font-size="22" font-weight="700" fill="var(--cf-text)">95</text><g transform="translate(0,40)"><svg width="64" height="14" viewBox="0 0 64 14" preserveAspectRatio="none"><path d="M0 14 L2.13 14 L4.27 14 L6.4 14 L8.53 14 L10.67 14 L12.8 14 L14.93 14 L17.07 14 L19.2 14 L21.33 14 L23.47 14 L25.6 0.93 L27.73 0.93 L29.87 0.93 L32 0.93 L34.13 0.93 L36.27 0.93 L38.4 0.93 L40.53 0.93 L42.67 0.93 L44.8 0.93 L46.93 0.93 L49.07 0 L51.2 0 L53.33 0 L55.47 0 L57.6 0 L59.73 0 L61.87 0 L64 0 L64 14 L0 14 Z" fill="var(--cf-spark-bg)" stroke="none"/><path d="M0 14 L2.13 14 L4.27 14 L6.4 14 L8.53 14 L10.67 14 L12.8 14 L14.93 14 L17.07 14 L19.2 14 L21.33 14 L23.47 14 L25.6 0.93 L27.73 0.93 L29.87 0.93 L32 0.93 L34.13 0.93 L36.27 0.93 L38.4 0.93 L40.53 0.93 L42.67 0.93 L44.8 0.93 L46.93 0.93 L49.07 0 L51.2 0 L53.33 0 L55.47 0 L57.6 0 L59.73 0 L61.87 0 L64 0" fill="none" stroke="var(--cf-spark)" stroke-width="1.4" stroke-linecap="round" stroke-linejoin="round"/></svg></g></g><a href="https://github.com/braedonsaunders/codeflow" target="_blank"><text x="702" y="130" text-anchor="end" font-size="9" fill="var(--cf-text-faint)">powered by <tspan font-weight="600" fill="var(--cf-accent)">codeflow</tspan></text></a></svg>