<svg xmlns="http://www.w3.org/2000/svg" width="720" height="140" viewBox="0 0 720 140" font-family="-apple-system,BlinkMacSystemFont,Segoe UI,Helvetica,Arial,sans-serif"><style>svg{--cf-bg:#0d1117;--cf-bg-alt:#161b22;--cf-border:#21262d;--cf-text:#e6edf3;--cf-text-dim:#8b949e;--cf-text-faint:#6e7681;--cf-accent:#a78bfa;--cf-accent-soft:rgba(167,139,250,0.16);--cf-green:#3fb950;--cf-amber:#d29922;--cf-red:#f85149;--cf-spark:#a78bfa;--cf-spark-bg:rgba(167,139,250,0.18)}@media (prefers-color-scheme: light){svg{--cf-bg:#ffffff;--cf-bg-alt:#f6f8fa;--cf-border:#d0d7de;--cf-text:#1f2328;--cf-text-dim:#656d76;--cf-text-faint:#8c959f;--cf-accent:#6f42c1;--cf-accent-soft:rgba(111,66,193,0.12);--cf-green:#1a7f37;--cf-amber:#9a6700;--cf-red:#cf222e;--cf-spark:#6f42c1;--cf-spark-bg:rgba(111,66,193,0.12)}}</style><rect width="720" height="140" rx="12" fill="var(--cf-bg)" stroke="var(--cf-border)"/><text x="18" y="26" font-size="13" font-weight="600" fill="var(--cf-text)">braedonsaunders/bidwright</text><text x="702" y="26" text-anchor="end" font-size="10" fill="var(--cf-text-faint)" font-family="ui-monospace,SFMono-Regular,Menlo,monospace">@84fa6cc</text><g transform="translate(18,46)"><text x="0" y="0" font-size="9" font-weight="600" fill="var(--cf-text-dim)" letter-spacing="0.8">FILES</text><text x="0" y="28" font-size="22" font-weight="700" fill="var(--cf-text)">930</text><g transform="translate(0,40)"><svg width="64" height="14" viewBox="0 0 64 14" preserveAspectRatio="none"><path d="M0 14 L2.13 14 L4.27 14 L6.4 14 L8.53 14 L10.67 14 L12.8 14 L14.93 14 L17.07 14 L19.2 14 L21.33 14 L23.47 14 L25.6 14 L27.73 11.2 L29.87 11.2 L32 8.4 L34.13 5.6 L36.27 5.6 L38.4 5.6 L40.53 5.6 L42.67 5.6 L44.8 5.6 L46.93 5.6 L49.07 5.6 L51.2 2.8 L53.33 2.8 L55.47 2.8 L57.6 2.8 L59.73 2.8 L61.87 2.8 L64 0 L64 14 L0 14 Z" fill="var(--cf-spark-bg)" stroke="none"/><path d="M0 14 L2.13 14 L4.27 14 L6.4 14 L8.53 14 L10.67 14 L12.8 14 L14.93 14 L17.07 14 L19.2 14 L21.33 14 L23.47 14 L25.6 14 L27.73 11.2 L29.87 11.2 L32 8.4 L34.13 5.6 L36.27 5.6 L38.4 5.6 L40.53 5.6 L42.67 5.6 L44.8 5.6 L46.93 5.6 L49.07 5.6 L51.2 2.8 L53.33 2.8 L55.47 2.8 L57.6 2.8 L59.73 2.8 L61.87 2.8 L64 0" fill="none" stroke="var(--cf-spark)" stroke-width="1.4" stroke-linecap="round" stroke-linejoin="round"/></svg></g></g><g transform="translate(154.8,46)"><text x="0" y="0" font-size="9" font-weight="600" fill="var(--cf-text-dim)" letter-spacing="0.8">FNS</text><text x="0" y="28" font-size="22" font-weight="700" fill="var(--cf-text)">4.1K</text><g transform="translate(0,40)"><svg width="64" height="14" viewBox="0 0 64 14" preserveAspectRatio="none"><path d="M0 14 L2.13 14 L4.27 14 L6.4 14 L8.53 14 L10.67 14 L12.8 14 L14.93 14 L17.07 14 L19.2 13.46 L21.33 13.19 L23.47 13.19 L25.6 12.65 L27.73 10.77 L29.87 9.96 L32 8.62 L34.13 1.08 L36.27 1.08 L38.4 1.08 L40.53 1.88 L42.67 1.62 L44.8 1.62 L46.93 1.62 L49.07 0.81 L51.2 1.08 L53.33 1.08 L55.47 0.81 L57.6 0.81 L59.73 0.81 L61.87 0.81 L64 0 L64 14 L0 14 Z" fill="var(--cf-spark-bg)" stroke="none"/><path d="M0 14 L2.13 14 L4.27 14 L6.4 14 L8.53 14 L10.67 14 L12.8 14 L14.93 14 L17.07 14 L19.2 13.46 L21.33 13.19 L23.47 13.19 L25.6 12.65 L27.73 10.77 L29.87 9.96 L32 8.62 L34.13 1.08 L36.27 1.08 L38.4 1.08 L40.53 1.88 L42.67 1.62 L44.8 1.62 L46.93 1.62 L49.07 0.81 L51.2 1.08 L53.33 1.08 L55.47 0.81 L57.6 0.81 L59.73 0.81 L61.87 0.81 L64 0" fill="none" stroke="var(--cf-spark)" stroke-width="1.4" stroke-linecap="round" stroke-linejoin="round"/></svg></g></g><g transform="translate(291.6,46)"><text x="0" y="0" font-size="9" font-weight="600" fill="var(--cf-text-dim)" letter-spacing="0.8">LOC</text><text x="0" y="28" font-size="22" font-weight="700" fill="var(--cf-text)">313.1K</text><g transform="translate(0,40)"><svg width="64" height="14" viewBox="0 0 64 14" preserveAspectRatio="none"><path d="M0 14 L2.13 13.97 L4.27 13.97 L6.4 13.97 L8.53 13.97 L10.67 13.97 L12.8 13.97 L14.93 13.97 L17.07 13.71 L19.2 13.46 L21.33 13.02 L23.47 12.55 L25.6 12.24 L27.73 10.67 L29.87 9.64 L32 8.24 L34.13 3.05 L36.27 2.86 L38.4 2.86 L40.53 3.25 L42.67 3.15 L44.8 3.15 L46.93 3.13 L49.07 2.71 L51.2 1.71 L53.33 1.24 L55.47 0.88 L57.6 0.88 L59.73 0.85 L61.87 0.83 L64 0 L64 14 L0 14 Z" fill="var(--cf-spark-bg)" stroke="none"/><path d="M0 14 L2.13 13.97 L4.27 13.97 L6.4 13.97 L8.53 13.97 L10.67 13.97 L12.8 13.97 L14.93 13.97 L17.07 13.71 L19.2 13.46 L21.33 13.02 L23.47 12.55 L25.6 12.24 L27.73 10.67 L29.87 9.64 L32 8.24 L34.13 3.05 L36.27 2.86 L38.4 2.86 L40.53 3.25 L42.67 3.15 L44.8 3.15 L46.93 3.13 L49.07 2.71 L51.2 1.71 L53.33 1.24 L55.47 0.88 L57.6 0.88 L59.73 0.85 L61.87 0.83 L64 0" fill="none" stroke="var(--cf-spark)" stroke-width="1.4" stroke-linecap="round" stroke-linejoin="round"/></svg></g></g><g transform="translate(428.40000000000003,46)"><text x="0" y="0" font-size="9" font-weight="600" fill="var(--cf-text-dim)" letter-spacing="0.8">LANGS</text><text x="0" y="28" font-size="22" font-weight="700" fill="var(--cf-text)">21</text><g transform="translate(0,40)"><svg width="64" height="14" viewBox="0 0 64 14" preserveAspectRatio="none"><path d="M0 7 L2.13 7 L4.27 7 L6.4 7 L8.53 7 L10.67 7 L12.8 7 L14.93 7 L17.07 7 L19.2 7 L21.33 7 L23.47 7 L25.6 7 L27.73 7 L29.87 7 L32 7 L34.13 7 L36.27 7 L38.4 7 L40.53 7 L42.67 7 L44.8 7 L46.93 7 L49.07 7 L51.2 7 L53.33 7 L55.47 7 L57.6 7 L59.73 7 L61.87 7 L64 7 L64 14 L0 14 Z" fill="var(--cf-spark-bg)" stroke="none"/><path d="M0 7 L2.13 7 L4.27 7 L6.4 7 L8.53 7 L10.67 7 L12.8 7 L14.93 7 L17.07 7 L19.2 7 L21.33 7 L23.47 7 L25.6 7 L27.73 7 L29.87 7 L32 7 L34.13 7 L36.27 7 L38.4 7 L40.53 7 L42.67 7 L44.8 7 L46.93 7 L49.07 7 L51.2 7 L53.33 7 L55.47 7 L57.6 7 L59.73 7 L61.87 7 L64 7" fill="none" stroke="var(--cf-spark)" stroke-width="1.4" stroke-linecap="round" stroke-linejoin="round"/></svg></g></g><g transform="translate(565.2,46)"><text x="0" y="0" font-size="9" font-weight="600" fill="var(--cf-text-dim)" letter-spacing="0.8">TESTS</text><text x="0" y="28" font-size="22" font-weight="700" fill="var(--cf-text)">79</text><g transform="translate(0,40)"><svg width="64" height="14" viewBox="0 0 64 14" preserveAspectRatio="none"><path d="M0 14 L2.13 14 L4.27 14 L6.4 14 L8.53 14 L10.67 14 L12.8 14 L14.93 14 L17.07 14 L19.2 14 L21.33 14 L23.47 14 L25.6 14 L27.73 14 L29.87 14 L32 14 L34.13 14 L36.27 14 L38.4 14 L40.53 14 L42.67 14 L44.8 14 L46.93 14 L49.07 14 L51.2 14 L53.33 14 L55.47 14 L57.6 14 L59.73 14 L61.87 14 L64 0 L64 14 L0 14 Z" fill="var(--cf-spark-bg)" stroke="none"/><path d="M0 14 L2.13 14 L4.27 14 L6.4 14 L8.53 14 L10.67 14 L12.8 14 L14.93 14 L17.07 14 L19.2 14 L21.33 14 L23.47 14 L25.6 14 L27.73 14 L29.87 14 L32 14 L34.13 14 L36.27 14 L38.4 14 L40.53 14 L42.67 14 L44.8 14 L46.93 14 L49.07 14 L51.2 14 L53.33 14 L55.47 14 L57.6 14 L59.73 14 L61.87 14 L64 0" fill="none" stroke="var(--cf-spark)" stroke-width="1.4" stroke-linecap="round" stroke-linejoin="round"/></svg></g></g><a href="https://github.com/braedonsaunders/codeflow" target="_blank"><text x="702" y="130" text-anchor="end" font-size="9" fill="var(--cf-text-faint)">powered by <tspan font-weight="600" fill="var(--cf-accent)">codeflow</tspan></text></a></svg>