<svg xmlns="http://www.w3.org/2000/svg" viewBox="0 0 48 48">
  <rect width="48" height="48" rx="10" fill="#111827"/>
  <path d="M14 15h11.5c4.1 0 6.7 2.3 6.7 5.7 0 1.9-.8 3.5-2.3 4.5 2.5 1 4.1 3 4.1 5.8 0 4.2-3.1 7-8.1 7H14V15zm11 9.2c1.9 0 3.1-1 3.1-2.7S26.9 19 25 19h-6.7v5.2H25zm.7 9.8c2.5 0 4-1.2 4-3.3s-1.5-3.2-4-3.2h-7.4V34h7.4z" fill="#F8FAFC"/>
  <path d="M35.8 12.8 40 15.2v6.9l-4.2 2.4-4.2-2.4v-6.9l4.2-2.4z" fill="#22C55E"/>
  <path d="m35.8 12.8 4.2 2.4-4.2 2.4-4.2-2.4 4.2-2.4z" fill="#38BDF8"/>
</svg>
